0
SECTION
2
HEADER
9
$INSUNITS
70
4
0
ENDSEC
0
SECTION
2
TABLES
0
TABLE
2
LTYPE
0
LTYPE
72
65
70
0
2
CONTINUOUS
3
______
73
0
40
0
0
LTYPE
72
65
70
0
2
DASHED
3
_ _ _ 
73
2
40
7.5
49
5
49
-2.5
0
LTYPE
72
65
70
0
2
DOTTED
3
. . . 
73
2
40
1.5
49
0.5
49
-1
0
ENDTAB
0
TABLE
2
LAYER
0
LAYER
2
0
70
0
62
7
6
CONTINUOUS
0
LAYER
2
SHEETS
70
0
62
4
6
CONTINUOUS
0
LAYER
2
FREZ
70
0
62
6
6
CONTINUOUS
0
LAYER
2
HOLES
70
0
62
2
6
CONTINUOUS
0
LAYER
2
CUT
70
0
62
3
6
CONTINUOUS

0
LAYER
2
FREZ_135
70
0
62
1
6
CONTINUOUS

0
ENDTAB
0
ENDSEC
0
SECTION
2
ENTITIES
0
LINE
8
SHEETS
6
CONTINUOUS
10
0
20
0
11
1250
21
0
0
LINE
8
SHEETS
6
CONTINUOUS
10
1250
20
0
11
1250
21
3200
0
LINE
8
SHEETS
6
CONTINUOUS
10
1250
20
3200
11
0
21
3200
0
LINE
8
SHEETS
6
CONTINUOUS
10
0
20
3200
11
0
21
0
0
LINE
8
SHEETS
6
CONTINUOUS
10
35
20
215
11
1156
21
215
0
LINE
8
SHEETS
6
CONTINUOUS
10
1156
20
215
11
1156
21
3165
0
LINE
8
SHEETS
6
CONTINUOUS
10
1156
20
3165
11
35
21
3165
0
LINE
8
SHEETS
6
CONTINUOUS
10
35
20
3165
11
35
21
215
0
LINE
8
FREZ
6
CONTINUOUS
10
108
20
718
11
1108
21
718
0
LINE
8
FREZ
6
CONTINUOUS
10
108
20
1284
11
1108
21
1284
0
LINE
8
FREZ
6
CONTINUOUS
10
108
20
1850
11
1108
21
1850
0
LINE
8
FREZ
6
CONTINUOUS
10
129.7157288
20
2036
11
678
21
2036
0
LINE
8
FREZ
6
CONTINUOUS
10
38
20
2492
11
658
21
2492
0
LINE
8
FREZ
6
CONTINUOUS
10
129.7157288
20
2662
11
678
21
2662
0
LINE
8
FREZ
6
CONTINUOUS
10
38
20
3118
11
658
21
3118
0
LINE
8
FREZ
6
CONTINUOUS
10
108
20
218
11
108
21
778
0
LINE
8
FREZ
6
CONTINUOUS
10
88
20
218
11
88
21
698
0
LINE
8
FREZ
6
CONTINUOUS
10
88
20
738
11
88
21
778
0
LINE
8
FREZ
6
CONTINUOUS
10
1108
20
218
11
1108
21
778
0
LINE
8
FREZ
6
CONTINUOUS
10
1133
20
218
11
1133
21
693
0
LINE
8
FREZ
6
CONTINUOUS
10
1133
20
743
11
1133
21
778
0
LINE
8
FREZ
6
CONTINUOUS
10
108
20
784
11
108
21
1344
0
LINE
8
FREZ
6
CONTINUOUS
10
88
20
784
11
88
21
1264
0
LINE
8
FREZ
6
CONTINUOUS
10
88
20
1304
11
88
21
1344
0
LINE
8
FREZ
6
CONTINUOUS
10
1108
20
784
11
1108
21
1344
0
LINE
8
FREZ
6
CONTINUOUS
10
1133
20
784
11
1133
21
1259
0
LINE
8
FREZ
6
CONTINUOUS
10
1133
20
1309
11
1133
21
1344
0
LINE
8
FREZ
6
CONTINUOUS
10
108
20
1350
11
108
21
1910
0
LINE
8
FREZ
6
CONTINUOUS
10
88
20
1350
11
88
21
1830
0
LINE
8
FREZ
6
CONTINUOUS
10
88
20
1870
11
88
21
1910
0
LINE
8
FREZ
6
CONTINUOUS
10
1108
20
1350
11
1108
21
1910
0
LINE
8
FREZ
6
CONTINUOUS
10
1133
20
1350
11
1133
21
1825
0
LINE
8
FREZ
6
CONTINUOUS
10
1133
20
1875
11
1133
21
1910
0
LINE
8
FREZ
6
CONTINUOUS
10
158
20
1916
11
158
21
2536
0
LINE
8
FREZ
6
CONTINUOUS
10
658
20
2036
11
658
21
2536
0
LINE
8
FREZ
6
CONTINUOUS
10
158
20
2542
11
158
21
3162
0
LINE
8
FREZ
6
CONTINUOUS
10
658
20
2662
11
658
21
3162
0
LINE
8
FREZ
6
CONTINUOUS
10
158
20
2036
11
38
21
1916
0
LINE
8
FREZ
6
CONTINUOUS
10
158
20
2662
11
38
21
2542
0
LINE
8
FREZ
6
CONTINUOUS
10
158
20
2036
11
38
21
2156
0
LINE
8
FREZ
6
CONTINUOUS
10
158
20
2662
11
38
21
2782
0
LINE
8
HOLES
6
CONTINUOUS
10
133
20
743
11
158
21
743
0
LINE
8
HOLES
6
CONTINUOUS
10
1058
20
743
11
1083
21
743
0
LINE
8
HOLES
6
CONTINUOUS
10
133
20
1309
11
158
21
1309
0
LINE
8
HOLES
6
CONTINUOUS
10
1058
20
1309
11
1083
21
1309
0
LINE
8
HOLES
6
CONTINUOUS
10
133
20
1875
11
158
21
1875
0
LINE
8
HOLES
6
CONTINUOUS
10
1058
20
1875
11
1083
21
1875
0
LINE
8
0
6
CONTINUOUS
10
38
20
778
11
1153
21
778
0
LINE
8
0
6
CONTINUOUS
10
108
20
218
11
1108
21
218
0
LINE
8
0
6
CONTINUOUS
10
1153
20
778
11
1153
21
743
0
LINE
8
0
6
CONTINUOUS
10
1153
20
743
11
1133
21
743
0
LINE
8
0
6
CONTINUOUS
10
1133
20
743
11
1108
21
718
0
LINE
8
0
6
CONTINUOUS
10
1108
20
718
11
1133
21
693
0
LINE
8
0
6
CONTINUOUS
10
1133
20
693
11
1153
21
693
0
LINE
8
0
6
CONTINUOUS
10
1153
20
693
11
1153
21
218
0
LINE
8
0
6
CONTINUOUS
10
38
20
778
11
38
21
738
0
LINE
8
0
6
CONTINUOUS
10
38
20
738
11
88
21
738
0
LINE
8
0
6
CONTINUOUS
10
88
20
738
11
108
21
718
0
LINE
8
0
6
CONTINUOUS
10
108
20
718
11
88
21
698
0
LINE
8
0
6
CONTINUOUS
10
88
20
698
11
38
21
698
0
LINE
8
0
6
CONTINUOUS
10
38
20
698
11
38
21
218
0
LINE
8
0
6
CONTINUOUS
10
1153
20
218
11
1108
21
218
0
LINE
8
0
6
CONTINUOUS
10
108
20
218
11
38
21
218
0
LINE
8
0
6
CONTINUOUS
10
608
20
515
11
608
21
565
0
LINE
8
0
6
CONTINUOUS
10
602
20
553
11
608
21
565
0
LINE
8
0
6
CONTINUOUS
10
614
20
553
11
608
21
565
0
LINE
8
0
6
CONTINUOUS
10
38
20
1344
11
1153
21
1344
0
LINE
8
0
6
CONTINUOUS
10
108
20
784
11
1108
21
784
0
LINE
8
0
6
CONTINUOUS
10
1153
20
1344
11
1153
21
1309
0
LINE
8
0
6
CONTINUOUS
10
1153
20
1309
11
1133
21
1309
0
LINE
8
0
6
CONTINUOUS
10
1133
20
1309
11
1108
21
1284
0
LINE
8
0
6
CONTINUOUS
10
1108
20
1284
11
1133
21
1259
0
LINE
8
0
6
CONTINUOUS
10
1133
20
1259
11
1153
21
1259
0
LINE
8
0
6
CONTINUOUS
10
1153
20
1259
11
1153
21
784
0
LINE
8
0
6
CONTINUOUS
10
38
20
1344
11
38
21
1304
0
LINE
8
0
6
CONTINUOUS
10
38
20
1304
11
88
21
1304
0
LINE
8
0
6
CONTINUOUS
10
88
20
1304
11
108
21
1284
0
LINE
8
0
6
CONTINUOUS
10
108
20
1284
11
88
21
1264
0
LINE
8
0
6
CONTINUOUS
10
88
20
1264
11
38
21
1264
0
LINE
8
0
6
CONTINUOUS
10
38
20
1264
11
38
21
784
0
LINE
8
0
6
CONTINUOUS
10
1153
20
784
11
1108
21
784
0
LINE
8
0
6
CONTINUOUS
10
108
20
784
11
38
21
784
0
LINE
8
0
6
CONTINUOUS
10
608
20
1081
11
608
21
1131
0
LINE
8
0
6
CONTINUOUS
10
602
20
1119
11
608
21
1131
0
LINE
8
0
6
CONTINUOUS
10
614
20
1119
11
608
21
1131
0
LINE
8
0
6
CONTINUOUS
10
38
20
1910
11
1153
21
1910
0
LINE
8
0
6
CONTINUOUS
10
108
20
1350
11
1108
21
1350
0
LINE
8
0
6
CONTINUOUS
10
1153
20
1910
11
1153
21
1875
0
LINE
8
0
6
CONTINUOUS
10
1153
20
1875
11
1133
21
1875
0
LINE
8
0
6
CONTINUOUS
10
1133
20
1875
11
1108
21
1850
0
LINE
8
0
6
CONTINUOUS
10
1108
20
1850
11
1133
21
1825
0
LINE
8
0
6
CONTINUOUS
10
1133
20
1825
11
1153
21
1825
0
LINE
8
0
6
CONTINUOUS
10
1153
20
1825
11
1153
21
1350
0
LINE
8
0
6
CONTINUOUS
10
38
20
1910
11
38
21
1870
0
LINE
8
0
6
CONTINUOUS
10
38
20
1870
11
88
21
1870
0
LINE
8
0
6
CONTINUOUS
10
88
20
1870
11
108
21
1850
0
LINE
8
0
6
CONTINUOUS
10
108
20
1850
11
88
21
1830
0
LINE
8
0
6
CONTINUOUS
10
88
20
1830
11
38
21
1830
0
LINE
8
0
6
CONTINUOUS
10
38
20
1830
11
38
21
1350
0
LINE
8
0
6
CONTINUOUS
10
1153
20
1350
11
1108
21
1350
0
LINE
8
0
6
CONTINUOUS
10
108
20
1350
11
38
21
1350
0
LINE
8
0
6
CONTINUOUS
10
608
20
1647
11
608
21
1697
0
LINE
8
0
6
CONTINUOUS
10
602
20
1685
11
608
21
1697
0
LINE
8
0
6
CONTINUOUS
10
614
20
1685
11
608
21
1697
0
LINE
8
0
6
CONTINUOUS
10
158
20
2536
11
658
21
2536
0
LINE
8
0
6
CONTINUOUS
10
38
20
1916
11
538
21
1916
0
LINE
8
0
6
CONTINUOUS
10
538
20
1916
11
658
21
2036
0
LINE
8
0
6
CONTINUOUS
10
658
20
2036
11
678
21
2016
0
LINE
8
0
6
CONTINUOUS
10
678
20
2536
11
678
21
2512
0
LINE
8
0
6
CONTINUOUS
10
678
20
2512
11
658
21
2492
0
LINE
8
0
6
CONTINUOUS
10
658
20
2492
11
678
21
2472
0
LINE
8
0
6
CONTINUOUS
10
678
20
2472
11
678
21
2016
0
LINE
8
0
6
CONTINUOUS
10
38
20
2536
11
38
21
2156
0
LINE
8
0
6
CONTINUOUS
10
38
20
2156
11
38
21
2127.7157288
0
LINE
8
0
6
CONTINUOUS
10
38
20
2127.7157288
11
129.7157288
21
2036
0
LINE
8
0
6
CONTINUOUS
10
129.7157288
20
2036
11
38
21
1944.2842712
0
LINE
8
0
6
CONTINUOUS
10
38
20
1944.2842712
11
38
21
1916
0
LINE
8
0
6
CONTINUOUS
10
658
20
2536
11
678
21
2536
0
LINE
8
0
6
CONTINUOUS
10
38
20
2536
11
158
21
2536
0
LINE
8
0
6
CONTINUOUS
10
408
20
2333
11
408
21
2383
0
LINE
8
0
6
CONTINUOUS
10
402
20
2371
11
408
21
2383
0
LINE
8
0
6
CONTINUOUS
10
414
20
2371
11
408
21
2383
0
LINE
8
0
6
CONTINUOUS
10
158
20
3162
11
658
21
3162
0
LINE
8
0
6
CONTINUOUS
10
38
20
2542
11
538
21
2542
0
LINE
8
0
6
CONTINUOUS
10
538
20
2542
11
658
21
2662
0
LINE
8
0
6
CONTINUOUS
10
658
20
2662
11
678
21
2642
0
LINE
8
0
6
CONTINUOUS
10
678
20
3162
11
678
21
3138
0
LINE
8
0
6
CONTINUOUS
10
678
20
3138
11
658
21
3118
0
LINE
8
0
6
CONTINUOUS
10
658
20
3118
11
678
21
3098
0
LINE
8
0
6
CONTINUOUS
10
678
20
3098
11
678
21
2642
0
LINE
8
0
6
CONTINUOUS
10
38
20
3162
11
38
21
2782
0
LINE
8
0
6
CONTINUOUS
10
38
20
2782
11
38
21
2753.7157288
0
LINE
8
0
6
CONTINUOUS
10
38
20
2753.7157288
11
129.7157288
21
2662
0
LINE
8
0
6
CONTINUOUS
10
129.7157288
20
2662
11
38
21
2570.2842712
0
LINE
8
0
6
CONTINUOUS
10
38
20
2570.2842712
11
38
21
2542
0
LINE
8
0
6
CONTINUOUS
10
658
20
3162
11
678
21
3162
0
LINE
8
0
6
CONTINUOUS
10
38
20
3162
11
158
21
3162
0
LINE
8
0
6
CONTINUOUS
10
408
20
2959
11
408
21
3009
0
LINE
8
0
6
CONTINUOUS
10
402
20
2997
11
408
21
3009
0
LINE
8
0
6
CONTINUOUS
10
414
20
2997
11
408
21
3009
0
LWPOLYLINE
5
A000
8
CUT
100
AcDbEntity
100
AcDbPolyline
90
17
70
1
10
35
20
781
10
1156
20
781
10
1156
20
740
10
1134.2426406871193
20
740
10
1112.2426406871193
20
718
10
1134.2426406871193
20
696
10
1156
20
696
10
1156
20
215
10
1111
20
215
10
105
20
215
10
35
20
215
10
35
20
701
10
86.75735931288071
20
701
10
103.75735931288071
20
718
10
86.75735931288071
20
735
10
35
20
735
10
35
20
781
0
LWPOLYLINE
5
A001
8
CUT
100
AcDbEntity
100
AcDbPolyline
90
17
70
1
10
35
20
1347
10
1156
20
1347
10
1156
20
1306
10
1134.2426406871193
20
1306
10
1112.2426406871193
20
1284
10
1134.2426406871193
20
1262
10
1156
20
1262
10
1156
20
781
10
1111
20
781
10
105
20
781
10
35
20
781
10
35
20
1267
10
86.75735931288071
20
1267
10
103.75735931288071
20
1284
10
86.75735931288071
20
1301
10
35
20
1301
10
35
20
1347
0
LWPOLYLINE
5
A002
8
CUT
100
AcDbEntity
100
AcDbPolyline
90
17
70
1
10
35
20
1913
10
1156
20
1913
10
1156
20
1872
10
1134.2426406871193
20
1872
10
1112.2426406871193
20
1850
10
1134.2426406871193
20
1828
10
1156
20
1828
10
1156
20
1347
10
1111
20
1347
10
105
20
1347
10
35
20
1347
10
35
20
1833
10
86.75735931288071
20
1833
10
103.75735931288071
20
1850
10
86.75735931288071
20
1867
10
35
20
1867
10
35
20
1913
0
LWPOLYLINE
5
A003
8
CUT
100
AcDbEntity
100
AcDbPolyline
90
17
70
1
10
155
20
2539
10
661
20
2539
10
681
20
2539
10
681
20
2510.757359312881
10
662.2426406871193
20
2492
10
681
20
2473.242640687119
10
681
20
2008.7573593128807
10
658
20
2031.7573593128807
10
539.2426406871193
20
1913
10
35
20
1913
10
35
20
1917.2426406871193
10
35
20
1945.5269119345812
10
125.4730880654188
20
2036
10
35
20
2126.473088065419
10
35
20
2154.757359312881
10
35
20
2539
10
155
20
2539
0
LWPOLYLINE
5
A004
8
CUT
100
AcDbEntity
100
AcDbPolyline
90
17
70
1
10
155
20
3165
10
661
20
3165
10
681
20
3165
10
681
20
3136.757359312881
10
662.2426406871193
20
3118
10
681
20
3099.242640687119
10
681
20
2634.757359312881
10
658
20
2657.757359312881
10
539.2426406871193
20
2539
10
35
20
2539
10
35
20
2543.242640687119
10
35
20
2571.526911934581
10
125.4730880654188
20
2662
10
35
20
2752.473088065419
10
35
20
2780.757359312881
10
35
20
3165
10
155
20
3165
0
TEXT
8
SHEETS
10
10
20
3280
40
50
1
1_r1_B_p5_u68
0
TEXT
8
SHEETS
10
595.5
20
498
40
20
1
gabrovo_T_x20
72
1
11
595.5
21
498
0
TEXT
8
SHEETS
10
595.5
20
1064
40
20
1
gabrovo_T_x20
72
1
11
595.5
21
1064
0
TEXT
8
SHEETS
10
595.5
20
1630
40
20
1
gabrovo_T_x20
72
1
11
595.5
21
1630
0
TEXT
8
SHEETS
10
358
20
2226
40
20
1
flappy-flaps_T_x8
72
1
11
358
21
2226
0
TEXT
8
SHEETS
10
358
20
2852
40
20
1
flappy-flaps_T_x8
72
1
11
358
21
2852
0
TEXT
8
SHEETS
10
1240
20
-80
40
80
1
1
72
2
11
1240
21
-80
0
ENDSEC
0
EOF