0
SECTION
2
HEADER
9
$INSUNITS
70
4
0
ENDSEC
0
SECTION
2
TABLES
0
TABLE
2
LTYPE
0
LTYPE
72
65
70
0
2
CONTINUOUS
3
______
73
0
40
0
0
LTYPE
72
65
70
0
2
DASHED
3
_ _ _ 
73
2
40
7.5
49
5
49
-2.5
0
LTYPE
72
65
70
0
2
DOTTED
3
. . . 
73
2
40
1.5
49
0.5
49
-1
0
ENDTAB
0
TABLE
2
LAYER
0
LAYER
2
0
70
0
62
7
6
CONTINUOUS
0
LAYER
2
FREZ
70
0
62
6
6
CONTINUOUS
0
LAYER
2
HOLES
70
0
62
2
6
CONTINUOUS
0
LAYER
2
CUT
70
0
62
3
6
CONTINUOUS
0
ENDTAB
0
ENDSEC
0
SECTION
2
ENTITIES
0
LINE
8
FREZ
6
CONTINUOUS
10
70
20
500
11
1070
21
500
0
LINE
8
FREZ
6
CONTINUOUS
10
70
20
0
11
70
21
475
0
LINE
8
FREZ
6
CONTINUOUS
10
70
20
475
11
70
21
480
0
LINE
8
FREZ
6
CONTINUOUS
10
70
20
480
11
70
21
500
0
LINE
8
FREZ
6
CONTINUOUS
10
70
20
500
11
70
21
520
0
LINE
8
FREZ
6
CONTINUOUS
10
70
20
520
11
70
21
525
0
LINE
8
FREZ
6
CONTINUOUS
10
70
20
525
11
70
21
560
0
LINE
8
FREZ
6
CONTINUOUS
10
50
20
0
11
50
21
475
0
LINE
8
FREZ
6
CONTINUOUS
10
50
20
475
11
50
21
480
0
LINE
8
FREZ
6
CONTINUOUS
10
50
20
520
11
50
21
525
0
LINE
8
FREZ
6
CONTINUOUS
10
50
20
525
11
50
21
560
0
LINE
8
FREZ
6
CONTINUOUS
10
1070
20
0
11
1070
21
475
0
LINE
8
FREZ
6
CONTINUOUS
10
1070
20
475
11
1070
21
480
0
LINE
8
FREZ
6
CONTINUOUS
10
1070
20
480
11
1070
21
500
0
LINE
8
FREZ
6
CONTINUOUS
10
1070
20
500
11
1070
21
520
0
LINE
8
FREZ
6
CONTINUOUS
10
1070
20
520
11
1070
21
525
0
LINE
8
FREZ
6
CONTINUOUS
10
1070
20
525
11
1070
21
560
0
LINE
8
FREZ
6
CONTINUOUS
10
1095
20
0
11
1095
21
475
0
LINE
8
FREZ
6
CONTINUOUS
10
1095
20
525
11
1095
21
560
0
LINE
8
HOLES
6
CONTINUOUS
10
95
20
525
11
120
21
525
0
LINE
8
HOLES
6
CONTINUOUS
10
1020
20
525
11
1045
21
525
0
LINE
8
0
6
CONTINUOUS
10
0
20
560
11
1115
21
560
0
LINE
8
0
6
CONTINUOUS
10
70
20
0
11
1070
21
0
0
LINE
8
0
6
CONTINUOUS
10
1115
20
560
11
1115
21
525
0
LINE
8
0
6
CONTINUOUS
10
1115
20
525
11
1095
21
525
0
LINE
8
0
6
CONTINUOUS
10
1095
20
525
11
1070
21
500
0
LINE
8
0
6
CONTINUOUS
10
1070
20
500
11
1095
21
475
0
LINE
8
0
6
CONTINUOUS
10
1095
20
475
11
1115
21
475
0
LINE
8
0
6
CONTINUOUS
10
1115
20
475
11
1115
21
0
0
LINE
8
0
6
CONTINUOUS
10
0
20
560
11
0
21
520
0
LINE
8
0
6
CONTINUOUS
10
0
20
520
11
50
21
520
0
LINE
8
0
6
CONTINUOUS
10
50
20
520
11
70
21
500
0
LINE
8
0
6
CONTINUOUS
10
70
20
500
11
50
21
480
0
LINE
8
0
6
CONTINUOUS
10
50
20
480
11
0
21
480
0
LINE
8
0
6
CONTINUOUS
10
0
20
480
11
0
21
0
0
LINE
8
0
6
CONTINUOUS
10
1115
20
0
11
1070
21
0
0
LINE
8
0
6
CONTINUOUS
10
70
20
0
11
0
21
0
0
LINE
8
CUT
6
CONTINUOUS
10
-3
20
563
11
1118
21
563
0
LINE
8
CUT
6
CONTINUOUS
10
67
20
-3
11
1073
21
-3
0
LINE
8
CUT
6
CONTINUOUS
10
1118
20
563
11
1118
21
522
0
LINE
8
CUT
6
CONTINUOUS
10
1118
20
522
11
1096.2426407
21
522
0
LINE
8
CUT
6
CONTINUOUS
10
1096.2426407
20
522
11
1074.2426407
21
500
0
LINE
8
CUT
6
CONTINUOUS
10
1074.2426407
20
500
11
1096.2426407
21
478
0
LINE
8
CUT
6
CONTINUOUS
10
1096.2426407
20
478
11
1118
21
478
0
LINE
8
CUT
6
CONTINUOUS
10
1118
20
478
11
1118
21
-3
0
LINE
8
CUT
6
CONTINUOUS
10
-3
20
563
11
-3
21
517
0
LINE
8
CUT
6
CONTINUOUS
10
-3
20
517
11
48.7573593
21
517
0
LINE
8
CUT
6
CONTINUOUS
10
48.7573593
20
517
11
65.7573593
21
500
0
LINE
8
CUT
6
CONTINUOUS
10
65.7573593
20
500
11
48.7573593
21
483
0
LINE
8
CUT
6
CONTINUOUS
10
48.7573593
20
483
11
-3
21
483
0
LINE
8
CUT
6
CONTINUOUS
10
-3
20
483
11
-3
21
-3
0
LINE
8
CUT
6
CONTINUOUS
10
1118
20
-3
11
1073
21
-3
0
LINE
8
CUT
6
CONTINUOUS
10
67
20
-3
11
-3
21
-3
0
LINE
8
0
6
CONTINUOUS
10
570
20
297
11
570
21
347
0
LINE
8
0
6
CONTINUOUS
10
564
20
335
11
570
21
347
0
LINE
8
0
6
CONTINUOUS
10
576
20
335
11
570
21
347
0
TEXT
8
0
10
278.8
20
218
40
64
1
gabrovo_T_x20
0
ENDSEC
0
EOF