0
SECTION
2
HEADER
9
$INSUNITS
70
4
0
ENDSEC
0
SECTION
2
TABLES
0
TABLE
2
LTYPE
0
LTYPE
72
65
70
0
2
CONTINUOUS
3
______
73
0
40
0
0
LTYPE
72
65
70
0
2
DASHED
3
_ _ _ 
73
2
40
7.5
49
5
49
-2.5
0
LTYPE
72
65
70
0
2
DOTTED
3
. . . 
73
2
40
1.5
49
0.5
49
-1
0
ENDTAB
0
TABLE
2
LAYER
0
LAYER
2
0
70
0
62
7
6
CONTINUOUS
0
LAYER
2
SHEETS
70
0
62
4
6
CONTINUOUS
0
LAYER
2
FREZ
70
0
62
6
6
CONTINUOUS
0
LAYER
2
CUT
70
0
62
3
6
CONTINUOUS
0
LAYER
2
FREZ_135
70
0
62
1
6
CONTINUOUS
0
LAYER
2
HOLES
70
0
62
2
6
CONTINUOUS
0
ENDTAB
0
ENDSEC
0
SECTION
2
ENTITIES
0
LINE
8
SHEETS
6
CONTINUOUS
10
0
20
0
11
1250
21
0
0
LINE
8
SHEETS
6
CONTINUOUS
10
1250
20
0
11
1250
21
3200
0
LINE
8
SHEETS
6
CONTINUOUS
10
1250
20
3200
11
0
21
3200
0
LINE
8
SHEETS
6
CONTINUOUS
10
0
20
3200
11
0
21
0
0
LINE
8
SHEETS
6
CONTINUOUS
10
35
20
35
11
1215
21
35
0
LINE
8
SHEETS
6
CONTINUOUS
10
1215
20
35
11
1215
21
3165
0
LINE
8
SHEETS
6
CONTINUOUS
10
1215
20
3165
11
35
21
3165
0
LINE
8
SHEETS
6
CONTINUOUS
10
35
20
3165
11
35
21
35
0
LINE
8
FREZ
6
CONTINUOUS
10
38
20
1067
11
892
21
1067
0
LINE
8
FREZ
6
CONTINUOUS
10
38
20
53
11
892
21
53
0
LINE
8
FREZ
6
CONTINUOUS
10
38
20
2117
11
892
21
2117
0
LINE
8
FREZ
6
CONTINUOUS
10
38
20
1103
11
892
21
1103
0
LINE
8
FREZ
6
CONTINUOUS
10
38
20
3144
11
829
21
3144
0
LINE
8
FREZ
6
CONTINUOUS
10
38
20
2153
11
829
21
2153
0
LINE
8
FREZ
6
CONTINUOUS
10
354
20
53
11
354
21
1067
0
LINE
8
FREZ
6
CONTINUOUS
10
594
20
53
11
594
21
1067
0
LINE
8
FREZ
6
CONTINUOUS
10
354
20
1103
11
354
21
2117
0
LINE
8
FREZ
6
CONTINUOUS
10
594
20
1103
11
594
21
2117
0
LINE
8
FREZ
6
CONTINUOUS
10
300
20
2153
11
300
21
3144
0
LINE
8
FREZ
6
CONTINUOUS
10
568
20
2153
11
568
21
3144
0
LINE
8
0
6
CONTINUOUS
10
38
20
1082
11
339
21
1082
0
LINE
8
0
6
CONTINUOUS
10
339
20
1082
11
354
21
1067
0
LINE
8
0
6
CONTINUOUS
10
354
20
1067
11
369
21
1082
0
LINE
8
0
6
CONTINUOUS
10
369
20
1082
11
474
21
1082
0
LINE
8
0
6
CONTINUOUS
10
474
20
1082
11
579
21
1082
0
LINE
8
0
6
CONTINUOUS
10
579
20
1082
11
594
21
1067
0
LINE
8
0
6
CONTINUOUS
10
594
20
1067
11
609
21
1082
0
LINE
8
0
6
CONTINUOUS
10
609
20
1082
11
892
21
1082
0
LINE
8
0
6
CONTINUOUS
10
38
20
38
11
339
21
38
0
LINE
8
0
6
CONTINUOUS
10
339
20
38
11
354
21
53
0
LINE
8
0
6
CONTINUOUS
10
354
20
53
11
369
21
38
0
LINE
8
0
6
CONTINUOUS
10
369
20
38
11
474
21
38
0
LINE
8
0
6
CONTINUOUS
10
474
20
38
11
579
21
38
0
LINE
8
0
6
CONTINUOUS
10
579
20
38
11
594
21
53
0
LINE
8
0
6
CONTINUOUS
10
594
20
53
11
609
21
38
0
LINE
8
0
6
CONTINUOUS
10
609
20
38
11
892
21
38
0
LINE
8
0
6
CONTINUOUS
10
892
20
1082
11
892
21
38
0
LINE
8
0
6
CONTINUOUS
10
38
20
1082
11
38
21
38
0
LINE
8
0
6
CONTINUOUS
10
474
20
607
11
474
21
657
0
LINE
8
0
6
CONTINUOUS
10
468
20
645
11
474
21
657
0
LINE
8
0
6
CONTINUOUS
10
480
20
645
11
474
21
657
0
LINE
8
0
6
CONTINUOUS
10
38
20
2132
11
339
21
2132
0
LINE
8
0
6
CONTINUOUS
10
339
20
2132
11
354
21
2117
0
LINE
8
0
6
CONTINUOUS
10
354
20
2117
11
369
21
2132
0
LINE
8
0
6
CONTINUOUS
10
369
20
2132
11
474
21
2132
0
LINE
8
0
6
CONTINUOUS
10
474
20
2132
11
579
21
2132
0
LINE
8
0
6
CONTINUOUS
10
579
20
2132
11
594
21
2117
0
LINE
8
0
6
CONTINUOUS
10
594
20
2117
11
609
21
2132
0
LINE
8
0
6
CONTINUOUS
10
609
20
2132
11
892
21
2132
0
LINE
8
0
6
CONTINUOUS
10
38
20
1088
11
339
21
1088
0
LINE
8
0
6
CONTINUOUS
10
339
20
1088
11
354
21
1103
0
LINE
8
0
6
CONTINUOUS
10
354
20
1103
11
369
21
1088
0
LINE
8
0
6
CONTINUOUS
10
369
20
1088
11
474
21
1088
0
LINE
8
0
6
CONTINUOUS
10
474
20
1088
11
579
21
1088
0
LINE
8
0
6
CONTINUOUS
10
579
20
1088
11
594
21
1103
0
LINE
8
0
6
CONTINUOUS
10
594
20
1103
11
609
21
1088
0
LINE
8
0
6
CONTINUOUS
10
609
20
1088
11
892
21
1088
0
LINE
8
0
6
CONTINUOUS
10
892
20
2132
11
892
21
1088
0
LINE
8
0
6
CONTINUOUS
10
38
20
2132
11
38
21
1088
0
LINE
8
0
6
CONTINUOUS
10
474
20
1657
11
474
21
1707
0
LINE
8
0
6
CONTINUOUS
10
468
20
1695
11
474
21
1707
0
LINE
8
0
6
CONTINUOUS
10
480
20
1695
11
474
21
1707
0
LINE
8
0
6
CONTINUOUS
10
38
20
3159
11
285
21
3159
0
LINE
8
0
6
CONTINUOUS
10
285
20
3159
11
300
21
3144
0
LINE
8
0
6
CONTINUOUS
10
300
20
3144
11
315
21
3159
0
LINE
8
0
6
CONTINUOUS
10
315
20
3159
11
434
21
3159
0
LINE
8
0
6
CONTINUOUS
10
434
20
3159
11
553
21
3159
0
LINE
8
0
6
CONTINUOUS
10
553
20
3159
11
568
21
3144
0
LINE
8
0
6
CONTINUOUS
10
568
20
3144
11
583
21
3159
0
LINE
8
0
6
CONTINUOUS
10
583
20
3159
11
829
21
3159
0
LINE
8
0
6
CONTINUOUS
10
38
20
2138
11
285
21
2138
0
LINE
8
0
6
CONTINUOUS
10
285
20
2138
11
300
21
2153
0
LINE
8
0
6
CONTINUOUS
10
300
20
2153
11
315
21
2138
0
LINE
8
0
6
CONTINUOUS
10
315
20
2138
11
434
21
2138
0
LINE
8
0
6
CONTINUOUS
10
434
20
2138
11
553
21
2138
0
LINE
8
0
6
CONTINUOUS
10
553
20
2138
11
568
21
2153
0
LINE
8
0
6
CONTINUOUS
10
568
20
2153
11
583
21
2138
0
LINE
8
0
6
CONTINUOUS
10
583
20
2138
11
829
21
2138
0
LINE
8
0
6
CONTINUOUS
10
829
20
3159
11
829
21
2138
0
LINE
8
0
6
CONTINUOUS
10
38
20
3159
11
38
21
2138
0
LINE
8
0
6
CONTINUOUS
10
434
20
2695.5
11
434
21
2745.5
0
LINE
8
0
6
CONTINUOUS
10
428
20
2733.5
11
434
21
2745.5
0
LINE
8
0
6
CONTINUOUS
10
440
20
2733.5
11
434
21
2745.5
0
TEXT
8
0
7
NestLabel
10
10
20
3280
40
95.63
1
4_r1_A_p3_u66
0
POLYLINE
5
5000
8
CUT
66
1
70
1
10
0
20
0
30
0
0
VERTEX
8
CUT
10
354
20
48.757999999999996
30
0
0
VERTEX
8
CUT
10
367.757
20
35
30
0
0
VERTEX
8
CUT
10
580.243
20
35
30
0
0
VERTEX
8
CUT
10
594
20
48.757999999999996
30
0
0
VERTEX
8
CUT
10
607.757
20
35
30
0
0
VERTEX
8
CUT
10
895
20
35
30
0
0
VERTEX
8
CUT
10
895
20
1085
30
0
0
VERTEX
8
CUT
10
607.757
20
1085
30
0
0
VERTEX
8
CUT
10
594
20
1071.242
30
0
0
VERTEX
8
CUT
10
580.243
20
1085
30
0
0
VERTEX
8
CUT
10
367.757
20
1085
30
0
0
VERTEX
8
CUT
10
354
20
1071.242
30
0
0
VERTEX
8
CUT
10
340.243
20
1085
30
0
0
VERTEX
8
CUT
10
35
20
1085
30
0
0
VERTEX
8
CUT
10
35
20
35
30
0
0
VERTEX
8
CUT
10
340.243
20
35
30
0
0
SEQEND
8
CUT
0
POLYLINE
5
5001
8
CUT
66
1
70
1
10
0
20
0
30
0
0
VERTEX
8
CUT
10
354
20
1098.758
30
0
0
VERTEX
8
CUT
10
367.757
20
1085
30
0
0
VERTEX
8
CUT
10
580.243
20
1085
30
0
0
VERTEX
8
CUT
10
594
20
1098.758
30
0
0
VERTEX
8
CUT
10
607.757
20
1085
30
0
0
VERTEX
8
CUT
10
895
20
1085
30
0
0
VERTEX
8
CUT
10
895
20
2135
30
0
0
VERTEX
8
CUT
10
607.757
20
2135
30
0
0
VERTEX
8
CUT
10
594
20
2121.242
30
0
0
VERTEX
8
CUT
10
580.243
20
2135
30
0
0
VERTEX
8
CUT
10
367.757
20
2135
30
0
0
VERTEX
8
CUT
10
354
20
2121.242
30
0
0
VERTEX
8
CUT
10
340.243
20
2135
30
0
0
VERTEX
8
CUT
10
35
20
2135
30
0
0
VERTEX
8
CUT
10
35
20
1085
30
0
0
VERTEX
8
CUT
10
340.243
20
1085
30
0
0
SEQEND
8
CUT
0
POLYLINE
5
5002
8
CUT
66
1
70
1
10
0
20
0
30
0
0
VERTEX
8
CUT
10
300
20
2148.758
30
0
0
VERTEX
8
CUT
10
313.757
20
2135
30
0
0
VERTEX
8
CUT
10
554.243
20
2135
30
0
0
VERTEX
8
CUT
10
568
20
2148.758
30
0
0
VERTEX
8
CUT
10
581.757
20
2135
30
0
0
VERTEX
8
CUT
10
832
20
2135
30
0
0
VERTEX
8
CUT
10
832
20
3162
30
0
0
VERTEX
8
CUT
10
581.757
20
3162
30
0
0
VERTEX
8
CUT
10
568
20
3148.242
30
0
0
VERTEX
8
CUT
10
554.243
20
3162
30
0
0
VERTEX
8
CUT
10
313.757
20
3162
30
0
0
VERTEX
8
CUT
10
300
20
3148.242
30
0
0
VERTEX
8
CUT
10
286.243
20
3162
30
0
0
VERTEX
8
CUT
10
35
20
3162
30
0
0
VERTEX
8
CUT
10
35
20
2135
30
0
0
VERTEX
8
CUT
10
286.243
20
2135
30
0
0
SEQEND
8
CUT
0
TEXT
8
0
7
NestLabel
10
465
20
560
40
50
1
2-6_T_x2
72
1
11
465
21
560
0
TEXT
8
0
7
NestLabel
10
465
20
1610
40
50
1
2-6_T_x2
72
1
11
465
21
1610
0
TEXT
8
0
7
NestLabel
10
433.5
20
2648.5
40
50
1
17-6_T_x2
72
1
11
433.5
21
2648.5
0
TEXT
8
0
7
NestLabel
10
1240
20
-120
40
95.63
1
1
72
2
11
1240
21
-120
0
ENDSEC
0
EOF