0
SECTION
2
HEADER
9
$INSUNITS
70
4
0
ENDSEC
0
SECTION
2
TABLES
0
TABLE
2
LTYPE
0
LTYPE
72
65
70
0
2
CONTINUOUS
3
______
73
0
40
0
0
LTYPE
72
65
70
0
2
DASHED
3
_ _ _ 
73
2
40
7.5
49
5
49
-2.5
0
LTYPE
72
65
70
0
2
DOTTED
3
. . . 
73
2
40
1.5
49
0.5
49
-1
0
ENDTAB
0
TABLE
2
LAYER
0
LAYER
2
0
70
0
62
7
6
CONTINUOUS
0
LAYER
2
FREZ
70
0
62
6
6
CONTINUOUS
0
LAYER
2
CUT
70
0
62
3
6
CONTINUOUS
0
ENDTAB
0
ENDSEC
0
SECTION
2
ENTITIES
0
LINE
8
FREZ
6
CONTINUOUS
10
0
20
120
11
640
21
120
0
LINE
8
FREZ
6
CONTINUOUS
10
120
20
0
11
120
21
620
0
LINE
8
FREZ
6
CONTINUOUS
10
620
20
100
11
620
21
620
0
LINE
8
FREZ
6
CONTINUOUS
10
120
20
120
11
0
21
0
0
LINE
8
FREZ
6
CONTINUOUS
10
120
20
120
11
0
21
240
0
LINE
8
0
6
CONTINUOUS
10
120
20
620
11
620
21
620
0
LINE
8
0
6
CONTINUOUS
10
0
20
0
11
500
21
0
0
LINE
8
0
6
CONTINUOUS
10
500
20
0
11
620
21
120
0
LINE
8
0
6
CONTINUOUS
10
620
20
120
11
640
21
100
0
LINE
8
0
6
CONTINUOUS
10
640
20
100
11
640
21
0
0
LINE
8
0
6
CONTINUOUS
10
640
20
620
11
640
21
100
0
LINE
8
0
6
CONTINUOUS
10
0
20
620
11
0
21
240
0
LINE
8
0
6
CONTINUOUS
10
0
20
240
11
0
21
211.7157288
0
LINE
8
0
6
CONTINUOUS
10
0
20
211.7157288
11
91.7157288
21
120
0
LINE
8
0
6
CONTINUOUS
10
91.7157288
20
120
11
0
21
28.2842712
0
LINE
8
0
6
CONTINUOUS
10
0
20
28.2842712
11
0
21
0
0
LINE
8
0
6
CONTINUOUS
10
620
20
620
11
640
21
620
0
LINE
8
0
6
CONTINUOUS
10
0
20
620
11
120
21
620
0
LINE
8
CUT
6
CONTINUOUS
10
117
20
623
11
623
21
623
0
LINE
8
CUT
6
CONTINUOUS
10
0
20
-3
11
501.2426407
21
-3
0
LINE
8
CUT
6
CONTINUOUS
10
501.2426407
20
-3
11
620
21
115.7573593
0
LINE
8
CUT
6
CONTINUOUS
10
620
20
115.7573593
11
640
21
95.7573593
0
LINE
8
CUT
6
CONTINUOUS
10
640
20
95.7573593
11
640
21
-3
0
LINE
8
CUT
6
CONTINUOUS
10
643
20
623
11
643
21
100
0
LINE
8
CUT
6
CONTINUOUS
10
-3
20
623
11
-3
21
238.7573593
0
LINE
8
CUT
6
CONTINUOUS
10
-3
20
238.7573593
11
-3
21
210.4730881
0
LINE
8
CUT
6
CONTINUOUS
10
-3
20
210.4730881
11
87.4730881
21
120
0
LINE
8
CUT
6
CONTINUOUS
10
87.4730881
20
120
11
-3
21
29.5269119
0
LINE
8
CUT
6
CONTINUOUS
10
-3
20
29.5269119
11
-3
21
1.2426407
0
LINE
8
CUT
6
CONTINUOUS
10
-3
20
1.2426407
11
-3
21
0
0
LINE
8
CUT
6
CONTINUOUS
10
623
20
623
11
643
21
623
0
LINE
8
CUT
6
CONTINUOUS
10
-3
20
623
11
117
21
623
0
LINE
8
0
6
CONTINUOUS
10
790
20
320
11
790
21
420
0
LINE
8
0
6
CONTINUOUS
10
784
20
408
11
790
21
420
0
LINE
8
0
6
CONTINUOUS
10
796
20
408
11
790
21
420
0
TEXT
8
0
10
61.200000000000045
20
338
40
64
1
flappy-flaps
0
ENDSEC
0
EOF