0
SECTION
2
HEADER
9
$INSUNITS
70
4
0
ENDSEC
0
SECTION
2
TABLES
0
TABLE
2
LTYPE
0
LTYPE
72
65
70
0
2
CONTINUOUS
3
______
73
0
40
0
0
LTYPE
72
65
70
0
2
DASHED
3
_ _ _ 
73
2
40
7.5
49
5
49
-2.5
0
LTYPE
72
65
70
0
2
DOTTED
3
. . . 
73
2
40
1.5
49
0.5
49
-1
0
ENDTAB
0
TABLE
2
LAYER
0
LAYER
2
0
70
0
62
7
6
CONTINUOUS
0
LAYER
2
SHEETS
70
0
62
4
6
CONTINUOUS
0
LAYER
2
FREZ
70
0
62
6
6
CONTINUOUS
0
LAYER
2
CUT
70
0
62
3
6
CONTINUOUS
0
LAYER
2
FREZ_135
70
0
62
1
6
CONTINUOUS
0
LAYER
2
HOLES
70
0
62
2
6
CONTINUOUS
0
ENDTAB
0
ENDSEC
0
SECTION
2
ENTITIES
0
LINE
8
SHEETS
6
CONTINUOUS
10
0
20
0
11
1250
21
0
0
LINE
8
SHEETS
6
CONTINUOUS
10
1250
20
0
11
1250
21
3200
0
LINE
8
SHEETS
6
CONTINUOUS
10
1250
20
3200
11
0
21
3200
0
LINE
8
SHEETS
6
CONTINUOUS
10
0
20
3200
11
0
21
0
0
LINE
8
SHEETS
6
CONTINUOUS
10
35
20
35
11
1215
21
35
0
LINE
8
SHEETS
6
CONTINUOUS
10
1215
20
35
11
1215
21
3165
0
LINE
8
SHEETS
6
CONTINUOUS
10
1215
20
3165
11
35
21
3165
0
LINE
8
SHEETS
6
CONTINUOUS
10
35
20
3165
11
35
21
35
0
LINE
8
FREZ
6
CONTINUOUS
10
38
20
1050
11
757
21
1050
0
LINE
8
FREZ
6
CONTINUOUS
10
38
20
53
11
757
21
53
0
LINE
8
FREZ
6
CONTINUOUS
10
38
20
2061
11
771
21
2061
0
LINE
8
FREZ
6
CONTINUOUS
10
38
20
1086
11
771
21
1086
0
LINE
8
FREZ
6
CONTINUOUS
10
38
20
3072
11
771
21
3072
0
LINE
8
FREZ
6
CONTINUOUS
10
38
20
2097
11
771
21
2097
0
LINE
8
FREZ
6
CONTINUOUS
10
763
20
1046
11
1209
21
1046
0
LINE
8
FREZ
6
CONTINUOUS
10
763
20
53
11
1209
21
53
0
LINE
8
FREZ
6
CONTINUOUS
10
777
20
2094
11
1210
21
2094
0
LINE
8
FREZ
6
CONTINUOUS
10
777
20
1082
11
1210
21
1082
0
LINE
8
FREZ
6
CONTINUOUS
10
777
20
3136
11
1211
21
3136
0
LINE
8
FREZ
6
CONTINUOUS
10
777
20
2130
11
1211
21
2130
0
LINE
8
FREZ
6
CONTINUOUS
10
288
20
53
11
288
21
1050
0
LINE
8
FREZ
6
CONTINUOUS
10
508
20
53
11
508
21
1050
0
LINE
8
FREZ
6
CONTINUOUS
10
274
20
1086
11
274
21
2061
0
LINE
8
FREZ
6
CONTINUOUS
10
537
20
1086
11
537
21
2061
0
LINE
8
FREZ
6
CONTINUOUS
10
274
20
2097
11
274
21
3072
0
LINE
8
FREZ
6
CONTINUOUS
10
537
20
2097
11
537
21
3072
0
LINE
8
FREZ
6
CONTINUOUS
10
853
20
53
11
853
21
1046
0
LINE
8
FREZ
6
CONTINUOUS
10
1119
20
53
11
1119
21
1046
0
LINE
8
FREZ
6
CONTINUOUS
10
875
20
1082
11
875
21
2094
0
LINE
8
FREZ
6
CONTINUOUS
10
1104
20
1082
11
1104
21
2094
0
LINE
8
FREZ
6
CONTINUOUS
10
878
20
2130
11
878
21
3136
0
LINE
8
FREZ
6
CONTINUOUS
10
1115
20
2130
11
1115
21
3136
0
LINE
8
0
6
CONTINUOUS
10
38
20
1065
11
273
21
1065
0
LINE
8
0
6
CONTINUOUS
10
273
20
1065
11
288
21
1050
0
LINE
8
0
6
CONTINUOUS
10
288
20
1050
11
303
21
1065
0
LINE
8
0
6
CONTINUOUS
10
303
20
1065
11
398
21
1065
0
LINE
8
0
6
CONTINUOUS
10
398
20
1065
11
493
21
1065
0
LINE
8
0
6
CONTINUOUS
10
493
20
1065
11
508
21
1050
0
LINE
8
0
6
CONTINUOUS
10
508
20
1050
11
523
21
1065
0
LINE
8
0
6
CONTINUOUS
10
523
20
1065
11
757
21
1065
0
LINE
8
0
6
CONTINUOUS
10
38
20
38
11
273
21
38
0
LINE
8
0
6
CONTINUOUS
10
273
20
38
11
288
21
53
0
LINE
8
0
6
CONTINUOUS
10
288
20
53
11
303
21
38
0
LINE
8
0
6
CONTINUOUS
10
303
20
38
11
398
21
38
0
LINE
8
0
6
CONTINUOUS
10
398
20
38
11
493
21
38
0
LINE
8
0
6
CONTINUOUS
10
493
20
38
11
508
21
53
0
LINE
8
0
6
CONTINUOUS
10
508
20
53
11
523
21
38
0
LINE
8
0
6
CONTINUOUS
10
523
20
38
11
757
21
38
0
LINE
8
0
6
CONTINUOUS
10
757
20
1065
11
757
21
38
0
LINE
8
0
6
CONTINUOUS
10
38
20
1065
11
38
21
38
0
LINE
8
0
6
CONTINUOUS
10
398
20
598.5
11
398
21
648.5
0
LINE
8
0
6
CONTINUOUS
10
392
20
636.5
11
398
21
648.5
0
LINE
8
0
6
CONTINUOUS
10
404
20
636.5
11
398
21
648.5
0
LINE
8
0
6
CONTINUOUS
10
38
20
2076
11
259
21
2076
0
LINE
8
0
6
CONTINUOUS
10
259
20
2076
11
274
21
2061
0
LINE
8
0
6
CONTINUOUS
10
274
20
2061
11
289
21
2076
0
LINE
8
0
6
CONTINUOUS
10
289
20
2076
11
405.5
21
2076
0
LINE
8
0
6
CONTINUOUS
10
405.5
20
2076
11
522
21
2076
0
LINE
8
0
6
CONTINUOUS
10
522
20
2076
11
537
21
2061
0
LINE
8
0
6
CONTINUOUS
10
537
20
2061
11
552
21
2076
0
LINE
8
0
6
CONTINUOUS
10
552
20
2076
11
771
21
2076
0
LINE
8
0
6
CONTINUOUS
10
38
20
1071
11
259
21
1071
0
LINE
8
0
6
CONTINUOUS
10
259
20
1071
11
274
21
1086
0
LINE
8
0
6
CONTINUOUS
10
274
20
1086
11
289
21
1071
0
LINE
8
0
6
CONTINUOUS
10
289
20
1071
11
405.5
21
1071
0
LINE
8
0
6
CONTINUOUS
10
405.5
20
1071
11
522
21
1071
0
LINE
8
0
6
CONTINUOUS
10
522
20
1071
11
537
21
1086
0
LINE
8
0
6
CONTINUOUS
10
537
20
1086
11
552
21
1071
0
LINE
8
0
6
CONTINUOUS
10
552
20
1071
11
771
21
1071
0
LINE
8
0
6
CONTINUOUS
10
771
20
2076
11
771
21
1071
0
LINE
8
0
6
CONTINUOUS
10
38
20
2076
11
38
21
1071
0
LINE
8
0
6
CONTINUOUS
10
405.5
20
1620.5
11
405.5
21
1670.5
0
LINE
8
0
6
CONTINUOUS
10
399.5
20
1658.5
11
405.5
21
1670.5
0
LINE
8
0
6
CONTINUOUS
10
411.5
20
1658.5
11
405.5
21
1670.5
0
LINE
8
0
6
CONTINUOUS
10
38
20
3087
11
259
21
3087
0
LINE
8
0
6
CONTINUOUS
10
259
20
3087
11
274
21
3072
0
LINE
8
0
6
CONTINUOUS
10
274
20
3072
11
289
21
3087
0
LINE
8
0
6
CONTINUOUS
10
289
20
3087
11
405.5
21
3087
0
LINE
8
0
6
CONTINUOUS
10
405.5
20
3087
11
522
21
3087
0
LINE
8
0
6
CONTINUOUS
10
522
20
3087
11
537
21
3072
0
LINE
8
0
6
CONTINUOUS
10
537
20
3072
11
552
21
3087
0
LINE
8
0
6
CONTINUOUS
10
552
20
3087
11
771
21
3087
0
LINE
8
0
6
CONTINUOUS
10
38
20
2082
11
259
21
2082
0
LINE
8
0
6
CONTINUOUS
10
259
20
2082
11
274
21
2097
0
LINE
8
0
6
CONTINUOUS
10
274
20
2097
11
289
21
2082
0
LINE
8
0
6
CONTINUOUS
10
289
20
2082
11
405.5
21
2082
0
LINE
8
0
6
CONTINUOUS
10
405.5
20
2082
11
522
21
2082
0
LINE
8
0
6
CONTINUOUS
10
522
20
2082
11
537
21
2097
0
LINE
8
0
6
CONTINUOUS
10
537
20
2097
11
552
21
2082
0
LINE
8
0
6
CONTINUOUS
10
552
20
2082
11
771
21
2082
0
LINE
8
0
6
CONTINUOUS
10
771
20
3087
11
771
21
2082
0
LINE
8
0
6
CONTINUOUS
10
38
20
3087
11
38
21
2082
0
LINE
8
0
6
CONTINUOUS
10
405.5
20
2631.5
11
405.5
21
2681.5
0
LINE
8
0
6
CONTINUOUS
10
399.5
20
2669.5
11
405.5
21
2681.5
0
LINE
8
0
6
CONTINUOUS
10
411.5
20
2669.5
11
405.5
21
2681.5
0
LINE
8
0
6
CONTINUOUS
10
763
20
1061
11
838
21
1061
0
LINE
8
0
6
CONTINUOUS
10
838
20
1061
11
853
21
1046
0
LINE
8
0
6
CONTINUOUS
10
853
20
1046
11
868
21
1061
0
LINE
8
0
6
CONTINUOUS
10
868
20
1061
11
986
21
1061
0
LINE
8
0
6
CONTINUOUS
10
986
20
1061
11
1104
21
1061
0
LINE
8
0
6
CONTINUOUS
10
1104
20
1061
11
1119
21
1046
0
LINE
8
0
6
CONTINUOUS
10
1119
20
1046
11
1134
21
1061
0
LINE
8
0
6
CONTINUOUS
10
1134
20
1061
11
1209
21
1061
0
LINE
8
0
6
CONTINUOUS
10
763
20
38
11
838
21
38
0
LINE
8
0
6
CONTINUOUS
10
838
20
38
11
853
21
53
0
LINE
8
0
6
CONTINUOUS
10
853
20
53
11
868
21
38
0
LINE
8
0
6
CONTINUOUS
10
868
20
38
11
986
21
38
0
LINE
8
0
6
CONTINUOUS
10
986
20
38
11
1104
21
38
0
LINE
8
0
6
CONTINUOUS
10
1104
20
38
11
1119
21
53
0
LINE
8
0
6
CONTINUOUS
10
1119
20
53
11
1134
21
38
0
LINE
8
0
6
CONTINUOUS
10
1134
20
38
11
1209
21
38
0
LINE
8
0
6
CONTINUOUS
10
1209
20
1061
11
1209
21
38
0
LINE
8
0
6
CONTINUOUS
10
763
20
1061
11
763
21
38
0
LINE
8
0
6
CONTINUOUS
10
986
20
596.5
11
986
21
646.5
0
LINE
8
0
6
CONTINUOUS
10
980
20
634.5
11
986
21
646.5
0
LINE
8
0
6
CONTINUOUS
10
992
20
634.5
11
986
21
646.5
0
LINE
8
0
6
CONTINUOUS
10
777
20
2109
11
860
21
2109
0
LINE
8
0
6
CONTINUOUS
10
860
20
2109
11
875
21
2094
0
LINE
8
0
6
CONTINUOUS
10
875
20
2094
11
890
21
2109
0
LINE
8
0
6
CONTINUOUS
10
890
20
2109
11
989.5
21
2109
0
LINE
8
0
6
CONTINUOUS
10
989.5
20
2109
11
1089
21
2109
0
LINE
8
0
6
CONTINUOUS
10
1089
20
2109
11
1104
21
2094
0
LINE
8
0
6
CONTINUOUS
10
1104
20
2094
11
1119
21
2109
0
LINE
8
0
6
CONTINUOUS
10
1119
20
2109
11
1210
21
2109
0
LINE
8
0
6
CONTINUOUS
10
777
20
1067
11
860
21
1067
0
LINE
8
0
6
CONTINUOUS
10
860
20
1067
11
875
21
1082
0
LINE
8
0
6
CONTINUOUS
10
875
20
1082
11
890
21
1067
0
LINE
8
0
6
CONTINUOUS
10
890
20
1067
11
989.5
21
1067
0
LINE
8
0
6
CONTINUOUS
10
989.5
20
1067
11
1089
21
1067
0
LINE
8
0
6
CONTINUOUS
10
1089
20
1067
11
1104
21
1082
0
LINE
8
0
6
CONTINUOUS
10
1104
20
1082
11
1119
21
1067
0
LINE
8
0
6
CONTINUOUS
10
1119
20
1067
11
1210
21
1067
0
LINE
8
0
6
CONTINUOUS
10
1210
20
2109
11
1210
21
1067
0
LINE
8
0
6
CONTINUOUS
10
777
20
2109
11
777
21
1067
0
LINE
8
0
6
CONTINUOUS
10
989.5
20
1635
11
989.5
21
1685
0
LINE
8
0
6
CONTINUOUS
10
983.5
20
1673
11
989.5
21
1685
0
LINE
8
0
6
CONTINUOUS
10
995.5
20
1673
11
989.5
21
1685
0
LINE
8
0
6
CONTINUOUS
10
777
20
3151
11
863
21
3151
0
LINE
8
0
6
CONTINUOUS
10
863
20
3151
11
878
21
3136
0
LINE
8
0
6
CONTINUOUS
10
878
20
3136
11
893
21
3151
0
LINE
8
0
6
CONTINUOUS
10
893
20
3151
11
996.5
21
3151
0
LINE
8
0
6
CONTINUOUS
10
996.5
20
3151
11
1100
21
3151
0
LINE
8
0
6
CONTINUOUS
10
1100
20
3151
11
1115
21
3136
0
LINE
8
0
6
CONTINUOUS
10
1115
20
3136
11
1130
21
3151
0
LINE
8
0
6
CONTINUOUS
10
1130
20
3151
11
1211
21
3151
0
LINE
8
0
6
CONTINUOUS
10
777
20
2115
11
863
21
2115
0
LINE
8
0
6
CONTINUOUS
10
863
20
2115
11
878
21
2130
0
LINE
8
0
6
CONTINUOUS
10
878
20
2130
11
893
21
2115
0
LINE
8
0
6
CONTINUOUS
10
893
20
2115
11
996.5
21
2115
0
LINE
8
0
6
CONTINUOUS
10
996.5
20
2115
11
1100
21
2115
0
LINE
8
0
6
CONTINUOUS
10
1100
20
2115
11
1115
21
2130
0
LINE
8
0
6
CONTINUOUS
10
1115
20
2130
11
1130
21
2115
0
LINE
8
0
6
CONTINUOUS
10
1130
20
2115
11
1211
21
2115
0
LINE
8
0
6
CONTINUOUS
10
1211
20
3151
11
1211
21
2115
0
LINE
8
0
6
CONTINUOUS
10
777
20
3151
11
777
21
2115
0
LINE
8
0
6
CONTINUOUS
10
996.5
20
2680
11
996.5
21
2730
0
LINE
8
0
6
CONTINUOUS
10
990.5
20
2718
11
996.5
21
2730
0
LINE
8
0
6
CONTINUOUS
10
1002.5
20
2718
11
996.5
21
2730
0
TEXT
8
0
7
NestLabel
10
10
20
3280
40
95.63
1
26_r1_A_p6_u91
0
POLYLINE
5
5000
8
CUT
66
1
70
1
10
0
20
0
30
0
0
VERTEX
8
CUT
10
288
20
48.757999999999996
30
0
0
VERTEX
8
CUT
10
301.757
20
35
30
0
0
VERTEX
8
CUT
10
494.243
20
35
30
0
0
VERTEX
8
CUT
10
508
20
48.757999999999996
30
0
0
VERTEX
8
CUT
10
521.7570000000001
20
35
30
0
0
VERTEX
8
CUT
10
760
20
35
30
0
0
VERTEX
8
CUT
10
760
20
1068
30
0
0
VERTEX
8
CUT
10
521.7570000000001
20
1068
30
0
0
VERTEX
8
CUT
10
508
20
1054.242
30
0
0
VERTEX
8
CUT
10
494.243
20
1068
30
0
0
VERTEX
8
CUT
10
301.757
20
1068
30
0
0
VERTEX
8
CUT
10
288
20
1054.242
30
0
0
VERTEX
8
CUT
10
274.243
20
1068
30
0
0
VERTEX
8
CUT
10
35
20
1068
30
0
0
VERTEX
8
CUT
10
35
20
35
30
0
0
VERTEX
8
CUT
10
274.243
20
35
30
0
0
SEQEND
8
CUT
0
POLYLINE
5
5001
8
CUT
66
1
70
1
10
0
20
0
30
0
0
VERTEX
8
CUT
10
274
20
1081.758
30
0
0
VERTEX
8
CUT
10
287.757
20
1068
30
0
0
VERTEX
8
CUT
10
523.2429999999999
20
1068
30
0
0
VERTEX
8
CUT
10
537
20
1081.758
30
0
0
VERTEX
8
CUT
10
550.757
20
1068
30
0
0
VERTEX
8
CUT
10
774
20
1068
30
0
0
VERTEX
8
CUT
10
774
20
2079
30
0
0
VERTEX
8
CUT
10
550.757
20
2079
30
0
0
VERTEX
8
CUT
10
537
20
2065.242
30
0
0
VERTEX
8
CUT
10
523.2429999999999
20
2079
30
0
0
VERTEX
8
CUT
10
287.757
20
2079
30
0
0
VERTEX
8
CUT
10
274
20
2065.242
30
0
0
VERTEX
8
CUT
10
260.243
20
2079
30
0
0
VERTEX
8
CUT
10
35
20
2079
30
0
0
VERTEX
8
CUT
10
35
20
1068
30
0
0
VERTEX
8
CUT
10
260.243
20
1068
30
0
0
SEQEND
8
CUT
0
POLYLINE
5
5002
8
CUT
66
1
70
1
10
0
20
0
30
0
0
VERTEX
8
CUT
10
274
20
2092.758
30
0
0
VERTEX
8
CUT
10
287.757
20
2079
30
0
0
VERTEX
8
CUT
10
523.2429999999999
20
2079
30
0
0
VERTEX
8
CUT
10
537
20
2092.758
30
0
0
VERTEX
8
CUT
10
550.757
20
2079
30
0
0
VERTEX
8
CUT
10
774
20
2079
30
0
0
VERTEX
8
CUT
10
774
20
3090
30
0
0
VERTEX
8
CUT
10
550.757
20
3090
30
0
0
VERTEX
8
CUT
10
537
20
3076.242
30
0
0
VERTEX
8
CUT
10
523.2429999999999
20
3090
30
0
0
VERTEX
8
CUT
10
287.757
20
3090
30
0
0
VERTEX
8
CUT
10
274
20
3076.242
30
0
0
VERTEX
8
CUT
10
260.243
20
3090
30
0
0
VERTEX
8
CUT
10
35
20
3090
30
0
0
VERTEX
8
CUT
10
35
20
2079
30
0
0
VERTEX
8
CUT
10
260.243
20
2079
30
0
0
SEQEND
8
CUT
0
POLYLINE
5
5003
8
CUT
66
1
70
1
10
0
20
0
30
0
0
VERTEX
8
CUT
10
853
20
48.757999999999996
30
0
0
VERTEX
8
CUT
10
866.7570000000001
20
35
30
0
0
VERTEX
8
CUT
10
1105.243
20
35
30
0
0
VERTEX
8
CUT
10
1119
20
48.757999999999996
30
0
0
VERTEX
8
CUT
10
1132.757
20
35
30
0
0
VERTEX
8
CUT
10
1212
20
35
30
0
0
VERTEX
8
CUT
10
1212
20
1064
30
0
0
VERTEX
8
CUT
10
1132.757
20
1064
30
0
0
VERTEX
8
CUT
10
1119
20
1050.242
30
0
0
VERTEX
8
CUT
10
1105.243
20
1064
30
0
0
VERTEX
8
CUT
10
866.7570000000001
20
1064
30
0
0
VERTEX
8
CUT
10
853
20
1050.242
30
0
0
VERTEX
8
CUT
10
839.2429999999999
20
1064
30
0
0
VERTEX
8
CUT
10
760
20
1064
30
0
0
VERTEX
8
CUT
10
760
20
35
30
0
0
VERTEX
8
CUT
10
839.2429999999999
20
35
30
0
0
SEQEND
8
CUT
0
POLYLINE
5
5004
8
CUT
66
1
70
1
10
0
20
0
30
0
0
VERTEX
8
CUT
10
875
20
1077.758
30
0
0
VERTEX
8
CUT
10
888.7570000000001
20
1064
30
0
0
VERTEX
8
CUT
10
1090.243
20
1064
30
0
0
VERTEX
8
CUT
10
1104
20
1077.758
30
0
0
VERTEX
8
CUT
10
1117.757
20
1064
30
0
0
VERTEX
8
CUT
10
1213
20
1064
30
0
0
VERTEX
8
CUT
10
1213
20
2112
30
0
0
VERTEX
8
CUT
10
1117.757
20
2112
30
0
0
VERTEX
8
CUT
10
1104
20
2098.242
30
0
0
VERTEX
8
CUT
10
1090.243
20
2112
30
0
0
VERTEX
8
CUT
10
888.7570000000001
20
2112
30
0
0
VERTEX
8
CUT
10
875
20
2098.242
30
0
0
VERTEX
8
CUT
10
861.2429999999999
20
2112
30
0
0
VERTEX
8
CUT
10
774
20
2112
30
0
0
VERTEX
8
CUT
10
774
20
1064
30
0
0
VERTEX
8
CUT
10
861.2429999999999
20
1064
30
0
0
SEQEND
8
CUT
0
POLYLINE
5
5005
8
CUT
66
1
70
1
10
0
20
0
30
0
0
VERTEX
8
CUT
10
878
20
2125.758
30
0
0
VERTEX
8
CUT
10
891.7570000000001
20
2112
30
0
0
VERTEX
8
CUT
10
1101.243
20
2112
30
0
0
VERTEX
8
CUT
10
1115
20
2125.758
30
0
0
VERTEX
8
CUT
10
1128.757
20
2112
30
0
0
VERTEX
8
CUT
10
1214
20
2112
30
0
0
VERTEX
8
CUT
10
1214
20
3154
30
0
0
VERTEX
8
CUT
10
1128.757
20
3154
30
0
0
VERTEX
8
CUT
10
1115
20
3140.242
30
0
0
VERTEX
8
CUT
10
1101.243
20
3154
30
0
0
VERTEX
8
CUT
10
891.7570000000001
20
3154
30
0
0
VERTEX
8
CUT
10
878
20
3140.242
30
0
0
VERTEX
8
CUT
10
864.2429999999999
20
3154
30
0
0
VERTEX
8
CUT
10
774
20
3154
30
0
0
VERTEX
8
CUT
10
774
20
2112
30
0
0
VERTEX
8
CUT
10
864.2429999999999
20
2112
30
0
0
SEQEND
8
CUT
0
TEXT
8
0
7
NestLabel
10
397.5
20
551.5
40
50
1
3-8_T_x2
72
1
11
397.5
21
551.5
0
TEXT
8
0
7
NestLabel
10
404.5
20
1573.5
40
50
1
7-2_T_x2
72
1
11
404.5
21
1573.5
0
TEXT
8
0
7
NestLabel
10
404.5
20
2584.5
40
50
1
7-2_T_x2
72
1
11
404.5
21
2584.5
0
TEXT
8
0
7
NestLabel
10
986
20
549.5
40
50
1
8-7
72
1
11
986
21
549.5
0
TEXT
8
0
7
NestLabel
10
993.5
20
1588
40
50
1
1-5
72
1
11
993.5
21
1588
0
TEXT
8
0
7
NestLabel
10
994
20
2633
40
50
1
6-7
72
1
11
994
21
2633
0
TEXT
8
0
7
NestLabel
10
1240
20
-120
40
95.63
1
1
72
2
11
1240
21
-120
0
ENDSEC
0
EOF