  0
SECTION
  2
HEADER
  9
$ACADVER
  1
AC1009
  9
$DWGCODEPAGE
  3
ANSI_1252
  9
$EXTMIN
 10
1e+20
 20
1e+20
 30
1e+20
  9
$EXTMAX
 10
-1e+20
 20
-1e+20
 30
-1e+20
  9
$LIMMIN
 10
0.0
 20
0.0
  9
$LIMMAX
 10
420.0
 20
297.0
  9
$TDCREATE
 40
2461231.6589699076
  9
$TDUPDATE
 40
2461231.6589699076
  9
$PEXTMIN
 10
1e+20
 20
1e+20
 30
1e+20
  9
$PEXTMAX
 10
-1e+20
 20
-1e+20
 30
-1e+20
  9
$PLIMMIN
 10
0.0
 20
0.0
  9
$PLIMMAX
 10
420.0
 20
297.0
  0
ENDSEC
  0
SECTION
  2
TABLES
  0
TABLE
  2
VPORT
 70
1
  0
VPORT
  2
*Active
 70
0
 10
0.0
 20
0.0
 11
1.0
 21
1.0
 12
0.0
 22
0.0
 13
0.0
 23
0.0
 14
0.5
 24
0.5
 15
0.5
 25
0.5
 16
0.0
 26
0.0
 36
1.0
 17
0.0
 27
0.0
 37
0.0
 40
1000.0
 41
1.34
 42
50.0
 43
0.0
 44
0.0
 50
0.0
 51
0.0
 71
0
 72
1000
 73
1
 74
3
 75
0
 76
0
 77
0
 78
0
  0
ENDTAB
  0
TABLE
  2
LTYPE
 70
5
  0
LTYPE
  2
CONTINUOUS
 70
0
  3
______
 72
65
 73
0
 40
0.0
  0
LTYPE
  2
DASHED
 70
0
  3
_ _ _ 
 72
65
 73
2
 40
7.5
 49
5.0
 49
-2.5
  0
LTYPE
  2
DOTTED
 70
0
  3
. . . 
 72
65
 73
2
 40
1.5
 49
0.5
 49
-1.0
  0
LTYPE
  2
ByBlock
 70
0
  3

 72
65
 73
0
 40
0.0
  0
LTYPE
  2
ByLayer
 70
0
  3

 72
65
 73
0
 40
0.0
  0
ENDTAB
  0
TABLE
  2
LAYER
 70
7
  0
LAYER
  2
0
 70
0
 62
7
  6
CONTINUOUS
  0
LAYER
  2
SHEETS
 70
0
 62
4
  6
CONTINUOUS
  0
LAYER
  2
FREZ
 70
0
 62
6
  6
CONTINUOUS
  0
LAYER
  2
CUT
 70
0
 62
3
  6
CONTINUOUS
  0
LAYER
  2
FREZ_135
 70
0
 62
1
  6
CONTINUOUS
  0
LAYER
  2
HOLES
 70
0
 62
2
  6
CONTINUOUS
  0
LAYER
  2
Defpoints
 70
0
 62
7
  6
Continuous
  0
ENDTAB
  0
TABLE
  2
STYLE
 70
1
  0
STYLE
  2
Standard
 70
0
 40
0.0
 41
1.0
 50
0.0
 71
0
 42
2.5
  3
txt
  4

  0
ENDTAB
  0
TABLE
  2
VIEW
 70
0
  0
ENDTAB
  0
TABLE
  2
UCS
 70
0
  0
ENDTAB
  0
TABLE
  2
APPID
 70
3
  0
APPID
  2
ACAD
 70
0
  0
APPID
  2
HATCHBACKGROUNDCOLOR
 70
0
  0
APPID
  2
EZDXF
 70
0
  0
ENDTAB
  0
TABLE
  2
DIMSTYLE
 70
1
  0
DIMSTYLE
  2
Standard
 70
0
  3

  4

  5

  6

  7

 40
1.0
 41
2.5
 42
0.625
 43
3.75
 44
1.25
 45
0.0
 46
0.0
 47
0.0
 48
0.0
140
2.5
141
2.5
142
0.0
143
0.03937007874
144
1.0
145
0.0
146
1.0
147
0.625
 71
0
 72
0
 73
0
 74
0
 75
0
 76
0
 77
1
 78
8
170
0
171
3
172
1
173
0
174
0
175
0
176
0
177
0
178
0
  0
ENDTAB
  0
ENDSEC
  0
SECTION
  2
BLOCKS
  0
BLOCK
  8
0
  2
$Model_Space
 70
0
 10
0.0
 20
0.0
 30
0.0
  3
$Model_Space
  1

1001
EZDXF
1000
WRITTEN_BY_EZDXF
1000
1.4.3 @ 2026-07-09T12:48:55.781469+00:00
  0
ENDBLK
  8
0
  0
BLOCK
  8
0
  2
$Paper_Space
 70
0
 10
0.0
 20
0.0
 30
0.0
  3
$Paper_Space
  1

  0
ENDBLK
  8
0
  0
ENDSEC
  0
SECTION
  2
ENTITIES
  0
LINE
  8
SHEETS
  6
CONTINUOUS
 10
0.0
 20
0.0
 30
0.0
 11
1250.0
 21
0.0
 31
0.0
  0
LINE
  8
SHEETS
  6
CONTINUOUS
 10
1250.0
 20
0.0
 30
0.0
 11
1250.0
 21
3200.0
 31
0.0
  0
LINE
  8
SHEETS
  6
CONTINUOUS
 10
1250.0
 20
3200.0
 30
0.0
 11
0.0
 21
3200.0
 31
0.0
  0
LINE
  8
SHEETS
  6
CONTINUOUS
 10
0.0
 20
3200.0
 30
0.0
 11
0.0
 21
0.0
 31
0.0
  0
LINE
  8
SHEETS
  6
CONTINUOUS
 10
35.0
 20
35.0
 30
0.0
 11
1215.0
 21
35.0
 31
0.0
  0
LINE
  8
SHEETS
  6
CONTINUOUS
 10
1215.0
 20
35.0
 30
0.0
 11
1215.0
 21
3165.0
 31
0.0
  0
LINE
  8
SHEETS
  6
CONTINUOUS
 10
1215.0
 20
3165.0
 30
0.0
 11
35.0
 21
3165.0
 31
0.0
  0
LINE
  8
SHEETS
  6
CONTINUOUS
 10
35.0
 20
3165.0
 30
0.0
 11
35.0
 21
35.0
 31
0.0
  0
LINE
  8
FREZ
  6
CONTINUOUS
 10
38.0
 20
1050.0
 30
0.0
 11
757.0
 21
1050.0
 31
0.0
  0
LINE
  8
FREZ
  6
CONTINUOUS
 10
38.0
 20
53.0
 30
0.0
 11
757.0
 21
53.0
 31
0.0
  0
LINE
  8
FREZ
  6
CONTINUOUS
 10
38.0
 20
2061.0
 30
0.0
 11
771.0
 21
2061.0
 31
0.0
  0
LINE
  8
FREZ
  6
CONTINUOUS
 10
38.0
 20
1086.0
 30
0.0
 11
771.0
 21
1086.0
 31
0.0
  0
LINE
  8
FREZ
  6
CONTINUOUS
 10
38.0
 20
3072.0
 30
0.0
 11
771.0
 21
3072.0
 31
0.0
  0
LINE
  8
FREZ
  6
CONTINUOUS
 10
38.0
 20
2097.0
 30
0.0
 11
771.0
 21
2097.0
 31
0.0
  0
LINE
  8
FREZ
  6
CONTINUOUS
 10
763.0
 20
1046.0
 30
0.0
 11
1209.0
 21
1046.0
 31
0.0
  0
LINE
  8
FREZ
  6
CONTINUOUS
 10
763.0
 20
53.0
 30
0.0
 11
1209.0
 21
53.0
 31
0.0
  0
LINE
  8
FREZ
  6
CONTINUOUS
 10
777.0
 20
2094.0
 30
0.0
 11
1210.0
 21
2094.0
 31
0.0
  0
LINE
  8
FREZ
  6
CONTINUOUS
 10
777.0
 20
1082.0
 30
0.0
 11
1210.0
 21
1082.0
 31
0.0
  0
LINE
  8
FREZ
  6
CONTINUOUS
 10
777.0
 20
3136.0
 30
0.0
 11
1211.0
 21
3136.0
 31
0.0
  0
LINE
  8
FREZ
  6
CONTINUOUS
 10
777.0
 20
2130.0
 30
0.0
 11
1211.0
 21
2130.0
 31
0.0
  0
LINE
  8
FREZ
  6
CONTINUOUS
 10
288.0
 20
53.0
 30
0.0
 11
288.0
 21
1050.0
 31
0.0
  0
LINE
  8
FREZ
  6
CONTINUOUS
 10
508.0
 20
53.0
 30
0.0
 11
508.0
 21
1050.0
 31
0.0
  0
LINE
  8
FREZ
  6
CONTINUOUS
 10
274.0
 20
1086.0
 30
0.0
 11
274.0
 21
2061.0
 31
0.0
  0
LINE
  8
FREZ
  6
CONTINUOUS
 10
537.0
 20
1086.0
 30
0.0
 11
537.0
 21
2061.0
 31
0.0
  0
LINE
  8
FREZ
  6
CONTINUOUS
 10
274.0
 20
2097.0
 30
0.0
 11
274.0
 21
3072.0
 31
0.0
  0
LINE
  8
FREZ
  6
CONTINUOUS
 10
537.0
 20
2097.0
 30
0.0
 11
537.0
 21
3072.0
 31
0.0
  0
LINE
  8
FREZ
  6
CONTINUOUS
 10
853.0
 20
53.0
 30
0.0
 11
853.0
 21
1046.0
 31
0.0
  0
LINE
  8
FREZ
  6
CONTINUOUS
 10
1119.0
 20
53.0
 30
0.0
 11
1119.0
 21
1046.0
 31
0.0
  0
LINE
  8
FREZ
  6
CONTINUOUS
 10
875.0
 20
1082.0
 30
0.0
 11
875.0
 21
2094.0
 31
0.0
  0
LINE
  8
FREZ
  6
CONTINUOUS
 10
1104.0
 20
1082.0
 30
0.0
 11
1104.0
 21
2094.0
 31
0.0
  0
LINE
  8
FREZ
  6
CONTINUOUS
 10
878.0
 20
2130.0
 30
0.0
 11
878.0
 21
3136.0
 31
0.0
  0
LINE
  8
FREZ
  6
CONTINUOUS
 10
1115.0
 20
2130.0
 30
0.0
 11
1115.0
 21
3136.0
 31
0.0
  0
LINE
  8
0
  6
CONTINUOUS
 10
38.0
 20
1065.0
 30
0.0
 11
273.0
 21
1065.0
 31
0.0
  0
LINE
  8
0
  6
CONTINUOUS
 10
273.0
 20
1065.0
 30
0.0
 11
288.0
 21
1050.0
 31
0.0
  0
LINE
  8
0
  6
CONTINUOUS
 10
288.0
 20
1050.0
 30
0.0
 11
303.0
 21
1065.0
 31
0.0
  0
LINE
  8
0
  6
CONTINUOUS
 10
303.0
 20
1065.0
 30
0.0
 11
398.0
 21
1065.0
 31
0.0
  0
LINE
  8
0
  6
CONTINUOUS
 10
398.0
 20
1065.0
 30
0.0
 11
493.0
 21
1065.0
 31
0.0
  0
LINE
  8
0
  6
CONTINUOUS
 10
493.0
 20
1065.0
 30
0.0
 11
508.0
 21
1050.0
 31
0.0
  0
LINE
  8
0
  6
CONTINUOUS
 10
508.0
 20
1050.0
 30
0.0
 11
523.0
 21
1065.0
 31
0.0
  0
LINE
  8
0
  6
CONTINUOUS
 10
523.0
 20
1065.0
 30
0.0
 11
757.0
 21
1065.0
 31
0.0
  0
LINE
  8
0
  6
CONTINUOUS
 10
38.0
 20
38.0
 30
0.0
 11
273.0
 21
38.0
 31
0.0
  0
LINE
  8
0
  6
CONTINUOUS
 10
273.0
 20
38.0
 30
0.0
 11
288.0
 21
53.0
 31
0.0
  0
LINE
  8
0
  6
CONTINUOUS
 10
288.0
 20
53.0
 30
0.0
 11
303.0
 21
38.0
 31
0.0
  0
LINE
  8
0
  6
CONTINUOUS
 10
303.0
 20
38.0
 30
0.0
 11
398.0
 21
38.0
 31
0.0
  0
LINE
  8
0
  6
CONTINUOUS
 10
398.0
 20
38.0
 30
0.0
 11
493.0
 21
38.0
 31
0.0
  0
LINE
  8
0
  6
CONTINUOUS
 10
493.0
 20
38.0
 30
0.0
 11
508.0
 21
53.0
 31
0.0
  0
LINE
  8
0
  6
CONTINUOUS
 10
508.0
 20
53.0
 30
0.0
 11
523.0
 21
38.0
 31
0.0
  0
LINE
  8
0
  6
CONTINUOUS
 10
523.0
 20
38.0
 30
0.0
 11
757.0
 21
38.0
 31
0.0
  0
LINE
  8
0
  6
CONTINUOUS
 10
757.0
 20
1065.0
 30
0.0
 11
757.0
 21
38.0
 31
0.0
  0
LINE
  8
0
  6
CONTINUOUS
 10
38.0
 20
1065.0
 30
0.0
 11
38.0
 21
38.0
 31
0.0
  0
LINE
  8
0
  6
CONTINUOUS
 10
398.0
 20
598.5
 30
0.0
 11
398.0
 21
648.5
 31
0.0
  0
LINE
  8
0
  6
CONTINUOUS
 10
392.0
 20
636.5
 30
0.0
 11
398.0
 21
648.5
 31
0.0
  0
LINE
  8
0
  6
CONTINUOUS
 10
404.0
 20
636.5
 30
0.0
 11
398.0
 21
648.5
 31
0.0
  0
LINE
  8
0
  6
CONTINUOUS
 10
38.0
 20
2076.0
 30
0.0
 11
259.0
 21
2076.0
 31
0.0
  0
LINE
  8
0
  6
CONTINUOUS
 10
259.0
 20
2076.0
 30
0.0
 11
274.0
 21
2061.0
 31
0.0
  0
LINE
  8
0
  6
CONTINUOUS
 10
274.0
 20
2061.0
 30
0.0
 11
289.0
 21
2076.0
 31
0.0
  0
LINE
  8
0
  6
CONTINUOUS
 10
289.0
 20
2076.0
 30
0.0
 11
405.5
 21
2076.0
 31
0.0
  0
LINE
  8
0
  6
CONTINUOUS
 10
405.5
 20
2076.0
 30
0.0
 11
522.0
 21
2076.0
 31
0.0
  0
LINE
  8
0
  6
CONTINUOUS
 10
522.0
 20
2076.0
 30
0.0
 11
537.0
 21
2061.0
 31
0.0
  0
LINE
  8
0
  6
CONTINUOUS
 10
537.0
 20
2061.0
 30
0.0
 11
552.0
 21
2076.0
 31
0.0
  0
LINE
  8
0
  6
CONTINUOUS
 10
552.0
 20
2076.0
 30
0.0
 11
771.0
 21
2076.0
 31
0.0
  0
LINE
  8
0
  6
CONTINUOUS
 10
38.0
 20
1071.0
 30
0.0
 11
259.0
 21
1071.0
 31
0.0
  0
LINE
  8
0
  6
CONTINUOUS
 10
259.0
 20
1071.0
 30
0.0
 11
274.0
 21
1086.0
 31
0.0
  0
LINE
  8
0
  6
CONTINUOUS
 10
274.0
 20
1086.0
 30
0.0
 11
289.0
 21
1071.0
 31
0.0
  0
LINE
  8
0
  6
CONTINUOUS
 10
289.0
 20
1071.0
 30
0.0
 11
405.5
 21
1071.0
 31
0.0
  0
LINE
  8
0
  6
CONTINUOUS
 10
405.5
 20
1071.0
 30
0.0
 11
522.0
 21
1071.0
 31
0.0
  0
LINE
  8
0
  6
CONTINUOUS
 10
522.0
 20
1071.0
 30
0.0
 11
537.0
 21
1086.0
 31
0.0
  0
LINE
  8
0
  6
CONTINUOUS
 10
537.0
 20
1086.0
 30
0.0
 11
552.0
 21
1071.0
 31
0.0
  0
LINE
  8
0
  6
CONTINUOUS
 10
552.0
 20
1071.0
 30
0.0
 11
771.0
 21
1071.0
 31
0.0
  0
LINE
  8
0
  6
CONTINUOUS
 10
771.0
 20
2076.0
 30
0.0
 11
771.0
 21
1071.0
 31
0.0
  0
LINE
  8
0
  6
CONTINUOUS
 10
38.0
 20
2076.0
 30
0.0
 11
38.0
 21
1071.0
 31
0.0
  0
LINE
  8
0
  6
CONTINUOUS
 10
405.5
 20
1620.5
 30
0.0
 11
405.5
 21
1670.5
 31
0.0
  0
LINE
  8
0
  6
CONTINUOUS
 10
399.5
 20
1658.5
 30
0.0
 11
405.5
 21
1670.5
 31
0.0
  0
LINE
  8
0
  6
CONTINUOUS
 10
411.5
 20
1658.5
 30
0.0
 11
405.5
 21
1670.5
 31
0.0
  0
LINE
  8
0
  6
CONTINUOUS
 10
38.0
 20
3087.0
 30
0.0
 11
259.0
 21
3087.0
 31
0.0
  0
LINE
  8
0
  6
CONTINUOUS
 10
259.0
 20
3087.0
 30
0.0
 11
274.0
 21
3072.0
 31
0.0
  0
LINE
  8
0
  6
CONTINUOUS
 10
274.0
 20
3072.0
 30
0.0
 11
289.0
 21
3087.0
 31
0.0
  0
LINE
  8
0
  6
CONTINUOUS
 10
289.0
 20
3087.0
 30
0.0
 11
405.5
 21
3087.0
 31
0.0
  0
LINE
  8
0
  6
CONTINUOUS
 10
405.5
 20
3087.0
 30
0.0
 11
522.0
 21
3087.0
 31
0.0
  0
LINE
  8
0
  6
CONTINUOUS
 10
522.0
 20
3087.0
 30
0.0
 11
537.0
 21
3072.0
 31
0.0
  0
LINE
  8
0
  6
CONTINUOUS
 10
537.0
 20
3072.0
 30
0.0
 11
552.0
 21
3087.0
 31
0.0
  0
LINE
  8
0
  6
CONTINUOUS
 10
552.0
 20
3087.0
 30
0.0
 11
771.0
 21
3087.0
 31
0.0
  0
LINE
  8
0
  6
CONTINUOUS
 10
38.0
 20
2082.0
 30
0.0
 11
259.0
 21
2082.0
 31
0.0
  0
LINE
  8
0
  6
CONTINUOUS
 10
259.0
 20
2082.0
 30
0.0
 11
274.0
 21
2097.0
 31
0.0
  0
LINE
  8
0
  6
CONTINUOUS
 10
274.0
 20
2097.0
 30
0.0
 11
289.0
 21
2082.0
 31
0.0
  0
LINE
  8
0
  6
CONTINUOUS
 10
289.0
 20
2082.0
 30
0.0
 11
405.5
 21
2082.0
 31
0.0
  0
LINE
  8
0
  6
CONTINUOUS
 10
405.5
 20
2082.0
 30
0.0
 11
522.0
 21
2082.0
 31
0.0
  0
LINE
  8
0
  6
CONTINUOUS
 10
522.0
 20
2082.0
 30
0.0
 11
537.0
 21
2097.0
 31
0.0
  0
LINE
  8
0
  6
CONTINUOUS
 10
537.0
 20
2097.0
 30
0.0
 11
552.0
 21
2082.0
 31
0.0
  0
LINE
  8
0
  6
CONTINUOUS
 10
552.0
 20
2082.0
 30
0.0
 11
771.0
 21
2082.0
 31
0.0
  0
LINE
  8
0
  6
CONTINUOUS
 10
771.0
 20
3087.0
 30
0.0
 11
771.0
 21
2082.0
 31
0.0
  0
LINE
  8
0
  6
CONTINUOUS
 10
38.0
 20
3087.0
 30
0.0
 11
38.0
 21
2082.0
 31
0.0
  0
LINE
  8
0
  6
CONTINUOUS
 10
405.5
 20
2631.5
 30
0.0
 11
405.5
 21
2681.5
 31
0.0
  0
LINE
  8
0
  6
CONTINUOUS
 10
399.5
 20
2669.5
 30
0.0
 11
405.5
 21
2681.5
 31
0.0
  0
LINE
  8
0
  6
CONTINUOUS
 10
411.5
 20
2669.5
 30
0.0
 11
405.5
 21
2681.5
 31
0.0
  0
LINE
  8
0
  6
CONTINUOUS
 10
763.0
 20
1061.0
 30
0.0
 11
838.0
 21
1061.0
 31
0.0
  0
LINE
  8
0
  6
CONTINUOUS
 10
838.0
 20
1061.0
 30
0.0
 11
853.0
 21
1046.0
 31
0.0
  0
LINE
  8
0
  6
CONTINUOUS
 10
853.0
 20
1046.0
 30
0.0
 11
868.0
 21
1061.0
 31
0.0
  0
LINE
  8
0
  6
CONTINUOUS
 10
868.0
 20
1061.0
 30
0.0
 11
986.0
 21
1061.0
 31
0.0
  0
LINE
  8
0
  6
CONTINUOUS
 10
986.0
 20
1061.0
 30
0.0
 11
1104.0
 21
1061.0
 31
0.0
  0
LINE
  8
0
  6
CONTINUOUS
 10
1104.0
 20
1061.0
 30
0.0
 11
1119.0
 21
1046.0
 31
0.0
  0
LINE
  8
0
  6
CONTINUOUS
 10
1119.0
 20
1046.0
 30
0.0
 11
1134.0
 21
1061.0
 31
0.0
  0
LINE
  8
0
  6
CONTINUOUS
 10
1134.0
 20
1061.0
 30
0.0
 11
1209.0
 21
1061.0
 31
0.0
  0
LINE
  8
0
  6
CONTINUOUS
 10
763.0
 20
38.0
 30
0.0
 11
838.0
 21
38.0
 31
0.0
  0
LINE
  8
0
  6
CONTINUOUS
 10
838.0
 20
38.0
 30
0.0
 11
853.0
 21
53.0
 31
0.0
  0
LINE
  8
0
  6
CONTINUOUS
 10
853.0
 20
53.0
 30
0.0
 11
868.0
 21
38.0
 31
0.0
  0
LINE
  8
0
  6
CONTINUOUS
 10
868.0
 20
38.0
 30
0.0
 11
986.0
 21
38.0
 31
0.0
  0
LINE
  8
0
  6
CONTINUOUS
 10
986.0
 20
38.0
 30
0.0
 11
1104.0
 21
38.0
 31
0.0
  0
LINE
  8
0
  6
CONTINUOUS
 10
1104.0
 20
38.0
 30
0.0
 11
1119.0
 21
53.0
 31
0.0
  0
LINE
  8
0
  6
CONTINUOUS
 10
1119.0
 20
53.0
 30
0.0
 11
1134.0
 21
38.0
 31
0.0
  0
LINE
  8
0
  6
CONTINUOUS
 10
1134.0
 20
38.0
 30
0.0
 11
1209.0
 21
38.0
 31
0.0
  0
LINE
  8
0
  6
CONTINUOUS
 10
1209.0
 20
1061.0
 30
0.0
 11
1209.0
 21
38.0
 31
0.0
  0
LINE
  8
0
  6
CONTINUOUS
 10
763.0
 20
1061.0
 30
0.0
 11
763.0
 21
38.0
 31
0.0
  0
LINE
  8
0
  6
CONTINUOUS
 10
986.0
 20
596.5
 30
0.0
 11
986.0
 21
646.5
 31
0.0
  0
LINE
  8
0
  6
CONTINUOUS
 10
980.0
 20
634.5
 30
0.0
 11
986.0
 21
646.5
 31
0.0
  0
LINE
  8
0
  6
CONTINUOUS
 10
992.0
 20
634.5
 30
0.0
 11
986.0
 21
646.5
 31
0.0
  0
LINE
  8
0
  6
CONTINUOUS
 10
777.0
 20
2109.0
 30
0.0
 11
860.0
 21
2109.0
 31
0.0
  0
LINE
  8
0
  6
CONTINUOUS
 10
860.0
 20
2109.0
 30
0.0
 11
875.0
 21
2094.0
 31
0.0
  0
LINE
  8
0
  6
CONTINUOUS
 10
875.0
 20
2094.0
 30
0.0
 11
890.0
 21
2109.0
 31
0.0
  0
LINE
  8
0
  6
CONTINUOUS
 10
890.0
 20
2109.0
 30
0.0
 11
989.5
 21
2109.0
 31
0.0
  0
LINE
  8
0
  6
CONTINUOUS
 10
989.5
 20
2109.0
 30
0.0
 11
1089.0
 21
2109.0
 31
0.0
  0
LINE
  8
0
  6
CONTINUOUS
 10
1089.0
 20
2109.0
 30
0.0
 11
1104.0
 21
2094.0
 31
0.0
  0
LINE
  8
0
  6
CONTINUOUS
 10
1104.0
 20
2094.0
 30
0.0
 11
1119.0
 21
2109.0
 31
0.0
  0
LINE
  8
0
  6
CONTINUOUS
 10
1119.0
 20
2109.0
 30
0.0
 11
1210.0
 21
2109.0
 31
0.0
  0
LINE
  8
0
  6
CONTINUOUS
 10
777.0
 20
1067.0
 30
0.0
 11
860.0
 21
1067.0
 31
0.0
  0
LINE
  8
0
  6
CONTINUOUS
 10
860.0
 20
1067.0
 30
0.0
 11
875.0
 21
1082.0
 31
0.0
  0
LINE
  8
0
  6
CONTINUOUS
 10
875.0
 20
1082.0
 30
0.0
 11
890.0
 21
1067.0
 31
0.0
  0
LINE
  8
0
  6
CONTINUOUS
 10
890.0
 20
1067.0
 30
0.0
 11
989.5
 21
1067.0
 31
0.0
  0
LINE
  8
0
  6
CONTINUOUS
 10
989.5
 20
1067.0
 30
0.0
 11
1089.0
 21
1067.0
 31
0.0
  0
LINE
  8
0
  6
CONTINUOUS
 10
1089.0
 20
1067.0
 30
0.0
 11
1104.0
 21
1082.0
 31
0.0
  0
LINE
  8
0
  6
CONTINUOUS
 10
1104.0
 20
1082.0
 30
0.0
 11
1119.0
 21
1067.0
 31
0.0
  0
LINE
  8
0
  6
CONTINUOUS
 10
1119.0
 20
1067.0
 30
0.0
 11
1210.0
 21
1067.0
 31
0.0
  0
LINE
  8
0
  6
CONTINUOUS
 10
1210.0
 20
2109.0
 30
0.0
 11
1210.0
 21
1067.0
 31
0.0
  0
LINE
  8
0
  6
CONTINUOUS
 10
777.0
 20
2109.0
 30
0.0
 11
777.0
 21
1067.0
 31
0.0
  0
LINE
  8
0
  6
CONTINUOUS
 10
989.5
 20
1635.0
 30
0.0
 11
989.5
 21
1685.0
 31
0.0
  0
LINE
  8
0
  6
CONTINUOUS
 10
983.5
 20
1673.0
 30
0.0
 11
989.5
 21
1685.0
 31
0.0
  0
LINE
  8
0
  6
CONTINUOUS
 10
995.5
 20
1673.0
 30
0.0
 11
989.5
 21
1685.0
 31
0.0
  0
LINE
  8
0
  6
CONTINUOUS
 10
777.0
 20
3151.0
 30
0.0
 11
863.0
 21
3151.0
 31
0.0
  0
LINE
  8
0
  6
CONTINUOUS
 10
863.0
 20
3151.0
 30
0.0
 11
878.0
 21
3136.0
 31
0.0
  0
LINE
  8
0
  6
CONTINUOUS
 10
878.0
 20
3136.0
 30
0.0
 11
893.0
 21
3151.0
 31
0.0
  0
LINE
  8
0
  6
CONTINUOUS
 10
893.0
 20
3151.0
 30
0.0
 11
996.5
 21
3151.0
 31
0.0
  0
LINE
  8
0
  6
CONTINUOUS
 10
996.5
 20
3151.0
 30
0.0
 11
1100.0
 21
3151.0
 31
0.0
  0
LINE
  8
0
  6
CONTINUOUS
 10
1100.0
 20
3151.0
 30
0.0
 11
1115.0
 21
3136.0
 31
0.0
  0
LINE
  8
0
  6
CONTINUOUS
 10
1115.0
 20
3136.0
 30
0.0
 11
1130.0
 21
3151.0
 31
0.0
  0
LINE
  8
0
  6
CONTINUOUS
 10
1130.0
 20
3151.0
 30
0.0
 11
1211.0
 21
3151.0
 31
0.0
  0
LINE
  8
0
  6
CONTINUOUS
 10
777.0
 20
2115.0
 30
0.0
 11
863.0
 21
2115.0
 31
0.0
  0
LINE
  8
0
  6
CONTINUOUS
 10
863.0
 20
2115.0
 30
0.0
 11
878.0
 21
2130.0
 31
0.0
  0
LINE
  8
0
  6
CONTINUOUS
 10
878.0
 20
2130.0
 30
0.0
 11
893.0
 21
2115.0
 31
0.0
  0
LINE
  8
0
  6
CONTINUOUS
 10
893.0
 20
2115.0
 30
0.0
 11
996.5
 21
2115.0
 31
0.0
  0
LINE
  8
0
  6
CONTINUOUS
 10
996.5
 20
2115.0
 30
0.0
 11
1100.0
 21
2115.0
 31
0.0
  0
LINE
  8
0
  6
CONTINUOUS
 10
1100.0
 20
2115.0
 30
0.0
 11
1115.0
 21
2130.0
 31
0.0
  0
LINE
  8
0
  6
CONTINUOUS
 10
1115.0
 20
2130.0
 30
0.0
 11
1130.0
 21
2115.0
 31
0.0
  0
LINE
  8
0
  6
CONTINUOUS
 10
1130.0
 20
2115.0
 30
0.0
 11
1211.0
 21
2115.0
 31
0.0
  0
LINE
  8
0
  6
CONTINUOUS
 10
1211.0
 20
3151.0
 30
0.0
 11
1211.0
 21
2115.0
 31
0.0
  0
LINE
  8
0
  6
CONTINUOUS
 10
777.0
 20
3151.0
 30
0.0
 11
777.0
 21
2115.0
 31
0.0
  0
LINE
  8
0
  6
CONTINUOUS
 10
996.5
 20
2680.0
 30
0.0
 11
996.5
 21
2730.0
 31
0.0
  0
LINE
  8
0
  6
CONTINUOUS
 10
990.5
 20
2718.0
 30
0.0
 11
996.5
 21
2730.0
 31
0.0
  0
LINE
  8
0
  6
CONTINUOUS
 10
1002.5
 20
2718.0
 30
0.0
 11
996.5
 21
2730.0
 31
0.0
  0
TEXT
  8
0
 10
10.0
 20
3280.0
 30
0.0
 40
95.63
  1
26_r1_A_p6_u91
  7
NestLabel
  0
TEXT
  8
0
 10
397.5
 20
551.5
 30
0.0
 40
50.0
  1
3-8_T_x2
  7
NestLabel
 72
1
 11
397.5
 21
551.5
 31
0.0
  0
TEXT
  8
0
 10
404.5
 20
1573.5
 30
0.0
 40
50.0
  1
7-2_T_x2
  7
NestLabel
 72
1
 11
404.5
 21
1573.5
 31
0.0
  0
TEXT
  8
0
 10
404.5
 20
2584.5
 30
0.0
 40
50.0
  1
7-2_T_x2
  7
NestLabel
 72
1
 11
404.5
 21
2584.5
 31
0.0
  0
TEXT
  8
0
 10
986.0
 20
549.5
 30
0.0
 40
50.0
  1
8-7
  7
NestLabel
 72
1
 11
986.0
 21
549.5
 31
0.0
  0
TEXT
  8
0
 10
993.5
 20
1588.0
 30
0.0
 40
50.0
  1
1-5
  7
NestLabel
 72
1
 11
993.5
 21
1588.0
 31
0.0
  0
TEXT
  8
0
 10
994.0
 20
2633.0
 30
0.0
 40
50.0
  1
6-7
  7
NestLabel
 72
1
 11
994.0
 21
2633.0
 31
0.0
  0
TEXT
  8
0
 10
1240.0
 20
-120.0
 30
0.0
 40
95.63
  1
1
  7
NestLabel
 72
2
 11
1240.0
 21
-120.0
 31
0.0
  0
LINE
  8
CUT
 10
288.0
 20
48.758
 30
0.0
 11
301.757
 21
35.0
 31
0.0
  0
LINE
  8
CUT
 10
35.0
 20
35.0
 30
0.0
 11
274.243
 21
35.0
 31
0.0
  0
LINE
  8
CUT
 10
301.757
 20
35.0
 30
0.0
 11
494.243
 21
35.0
 31
0.0
  0
LINE
  8
CUT
 10
521.757
 20
35.0
 30
0.0
 11
760.0
 21
35.0
 31
0.0
  0
LINE
  8
CUT
 10
760.0
 20
35.0
 30
0.0
 11
839.243
 21
35.0
 31
0.0
  0
LINE
  8
CUT
 10
866.757
 20
35.0
 30
0.0
 11
1105.243
 21
35.0
 31
0.0
  0
LINE
  8
CUT
 10
1132.757
 20
35.0
 30
0.0
 11
1212.0
 21
35.0
 31
0.0
  0
LINE
  8
CUT
 10
494.243
 20
35.0
 30
0.0
 11
508.0
 21
48.758
 31
0.0
  0
LINE
  8
CUT
 10
508.0
 20
48.758
 30
0.0
 11
521.757
 21
35.0
 31
0.0
  0
LINE
  8
CUT
 10
760.0
 20
35.0
 30
0.0
 11
760.0
 21
1064.0
 31
0.0
  0
LINE
  8
CUT
 10
760.0
 20
1064.0
 30
0.0
 11
760.0
 21
1068.0
 31
0.0
  0
LINE
  8
CUT
 10
35.0
 20
1068.0
 30
0.0
 11
260.243
 21
1068.0
 31
0.0
  0
LINE
  8
CUT
 10
260.243
 20
1068.0
 30
0.0
 11
274.243
 21
1068.0
 31
0.0
  0
LINE
  8
CUT
 10
287.757
 20
1068.0
 30
0.0
 11
301.757
 21
1068.0
 31
0.0
  0
LINE
  8
CUT
 10
301.757
 20
1068.0
 30
0.0
 11
494.243
 21
1068.0
 31
0.0
  0
LINE
  8
CUT
 10
494.243
 20
1068.0
 30
0.0
 11
521.757
 21
1068.0
 31
0.0
  0
LINE
  8
CUT
 10
521.757
 20
1068.0
 30
0.0
 11
523.243
 21
1068.0
 31
0.0
  0
LINE
  8
CUT
 10
523.243
 20
1068.0
 30
0.0
 11
550.757
 21
1068.0
 31
0.0
  0
LINE
  8
CUT
 10
550.757
 20
1068.0
 30
0.0
 11
760.0
 21
1068.0
 31
0.0
  0
LINE
  8
CUT
 10
760.0
 20
1068.0
 30
0.0
 11
774.0
 21
1068.0
 31
0.0
  0
LINE
  8
CUT
 10
508.0
 20
1054.242
 30
0.0
 11
521.757
 21
1068.0
 31
0.0
  0
LINE
  8
CUT
 10
494.243
 20
1068.0
 30
0.0
 11
508.0
 21
1054.242
 31
0.0
  0
LINE
  8
CUT
 10
288.0
 20
1054.242
 30
0.0
 11
301.757
 21
1068.0
 31
0.0
  0
LINE
  8
CUT
 10
274.243
 20
1068.0
 30
0.0
 11
288.0
 21
1054.242
 31
0.0
  0
LINE
  8
CUT
 10
35.0
 20
35.0
 30
0.0
 11
35.0
 21
1068.0
 31
0.0
  0
LINE
  8
CUT
 10
35.0
 20
1068.0
 30
0.0
 11
35.0
 21
2079.0
 31
0.0
  0
LINE
  8
CUT
 10
35.0
 20
2079.0
 30
0.0
 11
35.0
 21
3090.0
 31
0.0
  0
LINE
  8
CUT
 10
274.243
 20
35.0
 30
0.0
 11
288.0
 21
48.758
 31
0.0
  0
LINE
  8
CUT
 10
274.0
 20
1081.758
 30
0.0
 11
287.757
 21
1068.0
 31
0.0
  0
LINE
  8
CUT
 10
523.243
 20
1068.0
 30
0.0
 11
537.0
 21
1081.758
 31
0.0
  0
LINE
  8
CUT
 10
537.0
 20
1081.758
 30
0.0
 11
550.757
 21
1068.0
 31
0.0
  0
LINE
  8
CUT
 10
774.0
 20
1064.0
 30
0.0
 11
774.0
 21
1068.0
 31
0.0
  0
LINE
  8
CUT
 10
774.0
 20
1068.0
 30
0.0
 11
774.0
 21
2079.0
 31
0.0
  0
LINE
  8
CUT
 10
774.0
 20
2079.0
 30
0.0
 11
774.0
 21
2112.0
 31
0.0
  0
LINE
  8
CUT
 10
774.0
 20
2112.0
 30
0.0
 11
774.0
 21
3090.0
 31
0.0
  0
LINE
  8
CUT
 10
774.0
 20
3090.0
 30
0.0
 11
774.0
 21
3154.0
 31
0.0
  0
LINE
  8
CUT
 10
35.0
 20
2079.0
 30
0.0
 11
260.243
 21
2079.0
 31
0.0
  0
LINE
  8
CUT
 10
287.757
 20
2079.0
 30
0.0
 11
523.243
 21
2079.0
 31
0.0
  0
LINE
  8
CUT
 10
550.757
 20
2079.0
 30
0.0
 11
774.0
 21
2079.0
 31
0.0
  0
LINE
  8
CUT
 10
537.0
 20
2065.242
 30
0.0
 11
550.757
 21
2079.0
 31
0.0
  0
LINE
  8
CUT
 10
523.243
 20
2079.0
 30
0.0
 11
537.0
 21
2065.242
 31
0.0
  0
LINE
  8
CUT
 10
274.0
 20
2065.242
 30
0.0
 11
287.757
 21
2079.0
 31
0.0
  0
LINE
  8
CUT
 10
260.243
 20
2079.0
 30
0.0
 11
274.0
 21
2065.242
 31
0.0
  0
LINE
  8
CUT
 10
260.243
 20
1068.0
 30
0.0
 11
274.0
 21
1081.758
 31
0.0
  0
LINE
  8
CUT
 10
274.0
 20
2092.758
 30
0.0
 11
287.757
 21
2079.0
 31
0.0
  0
LINE
  8
CUT
 10
523.243
 20
2079.0
 30
0.0
 11
537.0
 21
2092.758
 31
0.0
  0
LINE
  8
CUT
 10
537.0
 20
2092.758
 30
0.0
 11
550.757
 21
2079.0
 31
0.0
  0
LINE
  8
CUT
 10
35.0
 20
3090.0
 30
0.0
 11
260.243
 21
3090.0
 31
0.0
  0
LINE
  8
CUT
 10
287.757
 20
3090.0
 30
0.0
 11
523.243
 21
3090.0
 31
0.0
  0
LINE
  8
CUT
 10
550.757
 20
3090.0
 30
0.0
 11
774.0
 21
3090.0
 31
0.0
  0
LINE
  8
CUT
 10
537.0
 20
3076.242
 30
0.0
 11
550.757
 21
3090.0
 31
0.0
  0
LINE
  8
CUT
 10
523.243
 20
3090.0
 30
0.0
 11
537.0
 21
3076.242
 31
0.0
  0
LINE
  8
CUT
 10
274.0
 20
3076.242
 30
0.0
 11
287.757
 21
3090.0
 31
0.0
  0
LINE
  8
CUT
 10
260.243
 20
3090.0
 30
0.0
 11
274.0
 21
3076.242
 31
0.0
  0
LINE
  8
CUT
 10
260.243
 20
2079.0
 30
0.0
 11
274.0
 21
2092.758
 31
0.0
  0
LINE
  8
CUT
 10
853.0
 20
48.758
 30
0.0
 11
866.757
 21
35.0
 31
0.0
  0
LINE
  8
CUT
 10
1105.243
 20
35.0
 30
0.0
 11
1119.0
 21
48.758
 31
0.0
  0
LINE
  8
CUT
 10
1119.0
 20
48.758
 30
0.0
 11
1132.757
 21
35.0
 31
0.0
  0
LINE
  8
CUT
 10
1212.0
 20
35.0
 30
0.0
 11
1212.0
 21
1064.0
 31
0.0
  0
LINE
  8
CUT
 10
760.0
 20
1064.0
 30
0.0
 11
774.0
 21
1064.0
 31
0.0
  0
LINE
  8
CUT
 10
774.0
 20
1064.0
 30
0.0
 11
839.243
 21
1064.0
 31
0.0
  0
LINE
  8
CUT
 10
839.243
 20
1064.0
 30
0.0
 11
861.243
 21
1064.0
 31
0.0
  0
LINE
  8
CUT
 10
866.757
 20
1064.0
 30
0.0
 11
888.757
 21
1064.0
 31
0.0
  0
LINE
  8
CUT
 10
888.757
 20
1064.0
 30
0.0
 11
1090.243
 21
1064.0
 31
0.0
  0
LINE
  8
CUT
 10
1090.243
 20
1064.0
 30
0.0
 11
1105.243
 21
1064.0
 31
0.0
  0
LINE
  8
CUT
 10
1117.757
 20
1064.0
 30
0.0
 11
1132.757
 21
1064.0
 31
0.0
  0
LINE
  8
CUT
 10
1132.757
 20
1064.0
 30
0.0
 11
1212.0
 21
1064.0
 31
0.0
  0
LINE
  8
CUT
 10
1212.0
 20
1064.0
 30
0.0
 11
1213.0
 21
1064.0
 31
0.0
  0
LINE
  8
CUT
 10
1119.0
 20
1050.242
 30
0.0
 11
1132.757
 21
1064.0
 31
0.0
  0
LINE
  8
CUT
 10
1105.243
 20
1064.0
 30
0.0
 11
1119.0
 21
1050.242
 31
0.0
  0
LINE
  8
CUT
 10
853.0
 20
1050.242
 30
0.0
 11
866.757
 21
1064.0
 31
0.0
  0
LINE
  8
CUT
 10
839.243
 20
1064.0
 30
0.0
 11
853.0
 21
1050.242
 31
0.0
  0
LINE
  8
CUT
 10
839.243
 20
35.0
 30
0.0
 11
853.0
 21
48.758
 31
0.0
  0
LINE
  8
CUT
 10
875.0
 20
1077.758
 30
0.0
 11
888.757
 21
1064.0
 31
0.0
  0
LINE
  8
CUT
 10
1090.243
 20
1064.0
 30
0.0
 11
1104.0
 21
1077.758
 31
0.0
  0
LINE
  8
CUT
 10
1104.0
 20
1077.758
 30
0.0
 11
1117.757
 21
1064.0
 31
0.0
  0
LINE
  8
CUT
 10
1213.0
 20
1064.0
 30
0.0
 11
1213.0
 21
2112.0
 31
0.0
  0
LINE
  8
CUT
 10
774.0
 20
2112.0
 30
0.0
 11
861.243
 21
2112.0
 31
0.0
  0
LINE
  8
CUT
 10
861.243
 20
2112.0
 30
0.0
 11
864.243
 21
2112.0
 31
0.0
  0
LINE
  8
CUT
 10
888.757
 20
2112.0
 30
0.0
 11
891.757
 21
2112.0
 31
0.0
  0
LINE
  8
CUT
 10
891.757
 20
2112.0
 30
0.0
 11
1090.243
 21
2112.0
 31
0.0
  0
LINE
  8
CUT
 10
1090.243
 20
2112.0
 30
0.0
 11
1101.243
 21
2112.0
 31
0.0
  0
LINE
  8
CUT
 10
1117.757
 20
2112.0
 30
0.0
 11
1128.757
 21
2112.0
 31
0.0
  0
LINE
  8
CUT
 10
1128.757
 20
2112.0
 30
0.0
 11
1213.0
 21
2112.0
 31
0.0
  0
LINE
  8
CUT
 10
1213.0
 20
2112.0
 30
0.0
 11
1214.0
 21
2112.0
 31
0.0
  0
LINE
  8
CUT
 10
1104.0
 20
2098.242
 30
0.0
 11
1117.757
 21
2112.0
 31
0.0
  0
LINE
  8
CUT
 10
1090.243
 20
2112.0
 30
0.0
 11
1104.0
 21
2098.242
 31
0.0
  0
LINE
  8
CUT
 10
875.0
 20
2098.242
 30
0.0
 11
888.757
 21
2112.0
 31
0.0
  0
LINE
  8
CUT
 10
861.243
 20
2112.0
 30
0.0
 11
875.0
 21
2098.242
 31
0.0
  0
LINE
  8
CUT
 10
861.243
 20
1064.0
 30
0.0
 11
875.0
 21
1077.758
 31
0.0
  0
LINE
  8
CUT
 10
878.0
 20
2125.758
 30
0.0
 11
891.757
 21
2112.0
 31
0.0
  0
LINE
  8
CUT
 10
1101.243
 20
2112.0
 30
0.0
 11
1115.0
 21
2125.758
 31
0.0
  0
LINE
  8
CUT
 10
1115.0
 20
2125.758
 30
0.0
 11
1128.757
 21
2112.0
 31
0.0
  0
LINE
  8
CUT
 10
1214.0
 20
2112.0
 30
0.0
 11
1214.0
 21
3154.0
 31
0.0
  0
LINE
  8
CUT
 10
774.0
 20
3154.0
 30
0.0
 11
864.243
 21
3154.0
 31
0.0
  0
LINE
  8
CUT
 10
891.757
 20
3154.0
 30
0.0
 11
1101.243
 21
3154.0
 31
0.0
  0
LINE
  8
CUT
 10
1128.757
 20
3154.0
 30
0.0
 11
1214.0
 21
3154.0
 31
0.0
  0
LINE
  8
CUT
 10
1115.0
 20
3140.242
 30
0.0
 11
1128.757
 21
3154.0
 31
0.0
  0
LINE
  8
CUT
 10
1101.243
 20
3154.0
 30
0.0
 11
1115.0
 21
3140.242
 31
0.0
  0
LINE
  8
CUT
 10
878.0
 20
3140.242
 30
0.0
 11
891.757
 21
3154.0
 31
0.0
  0
LINE
  8
CUT
 10
864.243
 20
3154.0
 30
0.0
 11
878.0
 21
3140.242
 31
0.0
  0
LINE
  8
CUT
 10
864.243
 20
2112.0
 30
0.0
 11
878.0
 21
2125.758
 31
0.0
  0
ENDSEC
  0
EOF
